<svg id="Capa_1" enable-background="new 0 0 512.289 512.289" height="512" viewBox="0 0 512.289 512.289" width="512" xmlns="http://www.w3.org/2000/svg"><g id="B_1_"><g><path d="m46.144 512.089v-512.089h201.107c38.001 0 65.801 1.626 84.99 4.97 67.89 11.888 111.036 69.201 111.036 130.848 0 41.16-18.508 78.398-47.789 102.24 44.754 23.536 70.655 66.579 70.655 119.788 0 47.253-22.254 97.024-61.31 125.277-19.092 13.816-42.693 22.399-70.146 25.507-39.863 4.466-248.217 3.69-288.543 3.459zm285.187-33.27c22.24-2.518 41.06-9.248 55.918-20.001 29.704-21.488 48.896-61.122 48.896-100.972 0-50.366-28.285-87.74-77.602-102.54l-37.72-11.32 35.692-16.642c34.482-16.078 56.763-52.003 56.763-91.525 0-49.948-36.252-92.549-86.199-101.296-17.214-3-44.076-4.523-79.827-4.523h-171.108v451.954c62.141-.065 217.037 1.139 255.187-3.135zm-89.161-47.692h-102.02v-158.349h90.904c59.821 0 79.112 4.424 88.418 7.752 31.453 11.26 49.489 37.769 49.489 72.733 0 39.097-22.741 67.674-59.363 74.625-6.626 1.403-20.939 3.239-67.428 3.239zm-72.019-30h72.02c42.814 0 56.789-1.635 61.309-2.61l.398-.08c22.625-4.241 35.084-20.285 35.084-45.175 0-22.489-9.957-37.456-29.595-44.486-6.262-2.239-24.769-5.998-78.312-5.998h-60.904zm46.612-180.24h-76.612v-140.996h68.99c45.198 0 72.048.568 82.086 1.738l.131.016c38.371 4.813 60.455 30.118 60.455 67.926 0 38.018-24.887 64.675-64.948 69.569-6.044.747-19.916 1.747-70.102 1.747zm-46.612-30h46.612c44.747 0 60.828-.828 66.438-1.523 17.627-2.153 38.611-10.802 38.611-39.793 0-22.769-11.16-35.249-34.12-38.15-6.082-.699-24.663-1.529-78.551-1.529h-38.99z"/></g></g></svg>