<?xml version="1.0" encoding="UTF-8"?>
<svg xmlns="http://www.w3.org/2000/svg" xmlns:xlink="http://www.w3.org/1999/xlink" width="512" height="512" viewBox="0 0 60 60" version="1.1">
<g>
<g>
<path d="M5.63,50.579 C5.52971505,51.4881333 5.6441133,52.4081144 5.964,53.265 C6.40752999,54.8578429 7.846754,55.9686015 9.5,55.994 C9.77483539,55.993324 10.0488974,55.9648456 10.318,55.909 C13.1613145,55.2207965 15.9653961,54.3795721 18.718,53.389 C20.964,54.712 22.385,58.73 22.755,60.237 C22.864299,60.6850384 23.2658226,61.0002261 23.727,61 L48.758,60.931 C49.0745356,60.9302348 49.3720188,60.77965 49.5600433,60.5250088 C49.7480679,60.2703675 49.8044296,59.9417411 49.712,59.639 C49.4669245,58.9560211 49.1261964,58.3112638 48.7,57.724 C48.4643719,57.3855461 48.2515668,57.0317618 48.063,56.665 C47.6119245,55.7410491 47.2340966,54.7831049 46.933,53.8 C46.3619279,51.8685412 45.9682958,49.8890003 45.757,47.886 C45.5675954,46.3132041 45.6043009,44.7213939 45.866,43.159 C45.9304649,42.8037772 45.7984559,42.4413864 45.5206171,42.2108555 C45.2427782,41.9803245 44.862252,41.9174499 44.5250236,42.046353 C44.1877952,42.175256 43.9462292,42.4759207 43.893,42.833 C43.6003478,44.5825246 43.5596013,46.3649297 43.772,48.126 C43.9966008,50.2473671 44.414674,52.3437585 45.021,54.389 C45.350533,55.4670704 45.7641352,56.5176268 46.258,57.531 C46.4842651,57.9774941 46.7405185,58.4081467 47.025,58.82 L47.099,58.931 L24.482,59 C23.8182864,56.6276002 22.6141607,54.4411435 20.964,52.612 C21.225,52.522 21.471,52.435 21.7,52.355 C22.448,52.092 23.013,51.893 23.3,51.804 C27.578,50.458 29.717,48.51 29.658,46.013 C29.6568851,45.7462483 29.5471888,45.4914529 29.3541837,45.3073151 C29.1611786,45.1231773 28.9015093,45.025577 28.635,45.037 C28.0830455,45.050101 27.646146,45.5080397 27.659,46.06 C27.683,47.09 26.842,48.593 22.698,49.896 C22.403,49.989 21.817,50.196 21.041,50.468 C20.327,50.718 19.448,51.027 18.485,51.356 C15.6748966,52.3747847 12.8117084,53.240718 9.908,53.95 C8.97383035,54.129552 8.06542114,53.5364767 7.854,52.609 C7.63767206,52.0473631 7.5548263,51.4431368 7.612,50.844 C7.64,50.637 7.687,50.43 7.732,50.223 C7.93714094,49.528992 7.96941203,48.7953398 7.826,48.086 C7.53923265,47.1689605 6.86758159,46.4221137 5.986,46.04 L5.773,45.917 C5.88005479,45.697975 6.00833565,45.4899792 6.156,45.296 C6.32193077,45.0834848 6.39501544,44.81297 6.35867845,44.5458084 C6.32234145,44.2786467 6.17966208,44.0374783 5.963,43.877 C5.724,43.699 5.154,43.271 4.744,42.943 C4.794,42.849 4.853,42.743 4.905,42.653 C5.058,42.382 5.233,42.069 5.405,41.711 C5.72500042,41.0121152 5.8186971,40.2307269 5.673,39.476 C5.441,38.25 4.273,37.652 3.419,37.216 C3.13092285,37.0790106 2.85465065,36.918465 2.593,36.736 C2.38329831,36.5914682 2.18504486,36.4309932 2,36.256 C2,36.106 2.158,35.742 2.926,34.8 C4.70917607,32.4962628 6.23743204,30.0060572 7.484,27.373 C7.72400273,26.960092 7.8583128,26.4943006 7.875,26.017 C7.77350318,25.0112549 7.24043478,24.0990913 6.414,23.517 C6.014,23.147 5.629,22.797 5.587,22.489 C5.59087855,22.2470553 5.64538165,22.0086042 5.747,21.789 C5.91,21.354 6.101,20.927 6.292,20.501 C6.69882151,19.660066 7.02300994,18.7816091 7.26,17.878 L7.341,17.526 C7.55398537,16.5007351 7.83187815,15.4900337 8.173,14.5 C8.95565696,12.324772 10.1734404,10.3318808 11.752,8.643 C13.685,6.598 16.608,5.204 20.689,4.38 C23.7715127,3.70490303 26.8991318,3.25537881 30.047,3.035 C34.0478616,2.78856786 38.0337065,3.71474072 41.516,5.7 C41.828786,5.87291655 42.2100621,5.86582867 42.5162052,5.6814063 C42.8223484,5.49698393 43.0068481,5.16324521 43.0002052,4.8059063 C42.9935624,4.44856738 42.796786,4.12191655 42.484,3.949 C38.6696835,1.79484674 34.3163708,0.782973166 29.943,1.034 C26.6972855,1.25890814 23.4723567,1.72080592 20.294,2.416 C15.794,3.324 12.524,4.91 10.294,7.265 C8.53026217,9.15027523 7.16923479,11.3752147 6.294,13.804 C5.92517771,14.8728605 5.62457335,15.9640544 5.394,17.071 L5.313,17.421 C5.10280329,18.1994337 4.81919827,18.9561602 4.466,19.681 C4.259,20.144 4.053,20.607 3.876,21.081 C3.64365169,21.6090015 3.5506867,22.1877947 3.606,22.762 C3.80911047,23.6549437 4.32616002,24.4452453 5.063,24.989 C5.552,25.438 5.873,25.754 5.876,26.04 C5.83787078,26.1904325 5.77897141,26.3348201 5.701,26.469 C4.50601871,28.9949021 3.04079654,31.3838513 1.331,33.594 C0.618,34.469 -0.131,35.494 0.021,36.528 C0.237137615,37.3162677 0.756694796,37.986838 1.466,38.393 C1.79610572,38.620977 2.14426054,38.8216426 2.507,38.993 C2.938,39.212 3.658,39.58 3.707,39.844 C3.77202659,40.1824477 3.73369801,40.5326316 3.597,40.849 C3.449,41.161 3.297,41.432 3.163,41.666 C2.773,42.357 2.185,43.401 3.108,44.18 C3.323,44.371 3.692,44.661 4.03,44.919 C3.77974157,45.3587629 3.66754784,45.8636347 3.708,46.368 C3.76173629,46.7586441 3.97407085,47.1098824 4.295,47.339 C4.519,47.498 4.756,47.639 4.995,47.771 C5.581,48.107 5.81,48.263 5.889,48.571 C5.94242881,48.9783601 5.90555683,49.392487 5.781,49.784 C5.722,50.055 5.665,50.317 5.63,50.579 Z" id="Shape"/><path d="M11.167,18.794 L11.267,18.361 C11.4422611,17.5251451 11.6656327,16.7001058 11.936,15.89 C12.5388535,14.2207868 13.4721212,12.6902822 14.68,11.39 C15.9762482,10.1677817 17.56299,9.29662258 19.29,8.859 C19.6317245,8.75467845 19.8918361,8.47597349 19.9723533,8.12787058 C20.0528705,7.77976768 19.9415607,7.41515194 19.6803533,7.17137058 C19.4191459,6.92758923 19.0477245,6.84167845 18.706,6.946 C16.6458677,7.48195529 14.7585511,8.5396103 13.226,10.017 C11.8329407,11.5140596 10.7564386,13.2769381 10.061,15.2 C9.76124556,16.087314 9.51414883,16.9915545 9.321,17.908 L9.221,18.341 C9.12857416,18.6929446 9.23461771,19.0673168 9.49788614,19.3185085 C9.76115457,19.5697002 10.1400903,19.6580601 10.4873103,19.5492217 C10.8345303,19.4403832 11.095225,19.1515268 11.168,18.795 L11.167,18.794 Z" id="Shape"/><circle id="Oval" cx="9" cy="22" r="1"/><path d="M50.97,31.734 L56.747,25.904 L56.929,25.714 L56.937,25.704 C56.958,25.682 56.98,25.66 57.001,25.637 C61.060704,21.2696319 60.9445768,14.4750871 56.738,10.249 C52.5760675,5.99839171 45.7714144,5.87988721 41.464,9.983 C41.372,10.0696667 41.281,10.1586667 41.191,10.25 C41.184,10.257 41.182,10.267 41.175,10.274 L30.721,20.817 C29.5276467,22.0245843 29.5276467,23.9674157 30.721,25.175 C31.2894971,25.7495376 32.0637426,26.0734897 32.872,26.075 L42.888,36.19 C43.307911,36.6178497 43.307911,37.3031503 42.888,37.731 C42.6902353,37.9320616 42.4200224,38.0452982 42.138,38.0452982 C41.8559776,38.0452982 41.5857647,37.9320616 41.388,37.731 L29.212,25.445 C28.8231915,25.0526017 28.1898983,25.0496915 27.7975,25.4385 C27.4051017,25.8273085 27.4021915,26.4606017 27.791,26.853 L39.968,39.142 C40.3885658,39.569971 40.3885658,40.256029 39.968,40.684 C39.5506097,41.0904719 38.8853903,41.0904719 38.468,40.684 L22.632,24.7 C22.56,24.627 22.489,24.553 22.42,24.478 C19.0876209,20.8965472 19.1830294,15.3213352 22.636,11.856 C24.3130259,10.1566588 26.6009958,9.20008038 28.9885,9.20008038 C31.3760042,9.20008038 33.6639741,10.1566588 35.341,11.856 C35.5908537,12.1168924 35.9619898,12.2227532 36.3118801,12.1329284 C36.6617704,12.0431036 36.9360178,11.7715582 37.0293024,11.4225743 C37.122587,11.0735905 37.0204059,10.7014245 36.762,10.449 C34.7093618,8.37041894 31.9097707,7.20047854 28.9885,7.20047854 C26.0672293,7.20047854 23.2676382,8.37041894 21.215,10.449 C17.0077845,14.6752098 16.8916522,21.4704965 20.952,25.838 C20.959,25.846 20.961,25.856 20.969,25.864 L21.205,26.102 L21.211,26.108 L37.041,42.084 C37.6146257,42.6649782 38.3970552,42.9919935 39.2135,42.9919935 C40.0299448,42.9919935 40.8123743,42.6649782 41.386,42.084 C41.9264265,41.5334374 42.2404775,40.8000567 42.266,40.029 C43.0355378,40.0013004 43.765661,39.681648 44.308,39.135 C44.8485455,38.5844269 45.1629179,37.851129 45.189,37.08 C45.9590951,37.0507492 46.6890378,36.7288734 47.23,36.18 C47.7704807,35.629789 48.0848637,34.8968232 48.111,34.126 C48.8812376,34.0961021 49.6112656,33.7743464 50.153,33.226 C50.5605182,32.8156143 50.8437389,32.2983985 50.97,31.734 Z M32.141,22.226 L42.841,11.435 C46.3606581,8.08388538 51.919783,8.18279744 55.318,11.657 C58.7709706,15.1223352 58.8663791,20.6975472 55.534,24.279 L55.478,24.337 L50.525,29.337 C50.4183188,29.1757177 50.2964284,29.0250291 50.161,28.887 L40.774,19.414 L41.658,18.522 C42.9258182,19.7375303 44.568882,20.4864288 46.318,20.646 C48.3481798,20.6824562 50.2909552,19.8210335 51.627,18.292 C51.8783363,18.037091 51.9745884,17.667459 51.8794989,17.3223409 C51.7844094,16.9772227 51.5124247,16.70905 51.1659989,16.6188409 C50.819573,16.5286317 50.4513363,16.630091 50.2,16.885 C49.2537351,17.9888646 47.8778338,18.6316321 46.424,18.649 C44.8701426,18.4386045 43.448808,17.6615179 42.433,16.467 C42.2539115,16.2461699 41.989288,16.1120135 41.7053082,16.0980817 C41.4213283,16.0841499 41.1448439,16.19176 40.945,16.394 L38.663,18.7 L35.75,21.64 L33.656,23.753 C33.4581736,23.9546621 33.187494,24.0681962 32.905,24.068 C32.6227618,24.0683802 32.3523241,23.9547964 32.155,23.753 C31.7402376,23.3306758 31.7340507,22.6558579 32.141,22.226 Z M45.813,34.785 C45.3964754,35.1935963 44.7295246,35.1935963 44.313,34.785 L34.913,25.301 C34.962,25.258 35.013,25.224 35.063,25.177 L36.444,23.784 L45.8,33.231 L45.809,33.244 C46.2300236,33.6707589 46.2318025,34.3560611 45.813,34.785 Z M47.24,31.839 L37.85,22.362 L39.363,20.835 L48.735,30.293 C49.154911,30.7208497 49.154911,31.4061503 48.735,31.834 C48.3200159,32.239679 47.6576883,32.2418941 47.24,31.839 Z" id="Shape"/></g></g></svg>
