<?xml version="1.0" encoding="UTF-8"?>
<svg xmlns="http://www.w3.org/2000/svg" xmlns:xlink="http://www.w3.org/1999/xlink" width="512" height="512" viewBox="0 0 60 61" version="1.1"><!-- Generator: Sketch 51.3 (57544) - http://www.bohemiancoding.com/sketch --><title>026 - Vision</title><desc>Created with Sketch.</desc><defs/><g id="Page-1" stroke="none" stroke-width="1" fill="none" fill-rule="evenodd"><g id="026---Vision" transform="translate(-1.000000, 0.000000)" fill-rule="nonzero"><path d="M47.26,37.71 C45.9803538,40.6319437 45.5006323,43.8415908 45.87,47.01 C46.0951005,49.0721875 46.5033794,51.1102353 47.09,53.1 C47.4048963,54.1305317 47.802868,55.1338218 48.28,56.1 C48.8718004,57.0090608 49.4061765,57.9542385 49.88,58.93 L24.78,59 L24.78,58.99 C24.7,58.69 23.19,52.81 19.85,51.3 C19.23,51.52 18.57,51.74 17.9,51.97 C15.6789002,52.7404523 13.4191713,53.3946722 11.13,53.93 C10.4993821,54.0806865 9.83512584,53.9878335 9.27,53.67 C8.62676625,53.2742562 8.14753634,52.660132 7.92,51.94 C7.65806229,51.2276891 7.56229323,50.4649569 7.64,49.71 C7.87036773,48.9391054 7.94848689,48.1307419 7.87,47.33 C7.61,46.32 6.65,46.07 5.89,45.53 C5.27,45.09 6.38,43.68 6.38,43.68 C6.38,43.68 5.2,42.81 4.78,42.43 C4.34,42.07 4.96,41.45 5.51,40.28 C5.73694079,39.7719796 5.80323378,39.2067446 5.7,38.66 C5.49,37.59 3.87,37.18 3.07,36.59 C2.69,36.31 2.08,35.89 2.01,35.38 C1.9,34.67 2.74,33.67 3.15,33.17 C4.89454657,30.9217816 6.38996718,28.4908848 7.61,25.92 C7.77010631,25.6486227 7.86589137,25.3441631 7.89,25.03 C7.87,23.6 5.8,23.01 5.61,21.62 C5.58022555,21.2120559 5.65239212,20.803112 5.82,20.43 C6.39667192,19.2042401 6.89109856,17.9414478 7.3,16.65 C7.54612792,15.4653226 7.86336869,14.2965408 8.25,13.15 C9.08859812,10.8496676 10.3808376,8.74127689 12.05,6.95 C14.5,4.36 18.12,3.08 21.54,2.4 C24.5813721,1.73504394 27.6655865,1.28393999 30.77,1.05 C30.87,1.04 30.97,1.04 31.07,1.03 C37.47,0.71 42.53,2.88 47.49,6.76 C50.1927291,8.77631392 52.1683037,11.6151058 53.12,14.85 C53.8451888,17.5213389 54.1852867,20.2825294 54.13,23.05 C54.110834,25.7831121 53.3129958,28.4541358 51.83,30.75 C50.34,33.1 48.39,35.14 47.26,37.71 Z" id="Shape" fill="#283593"/><path d="M44.26,37.71 C42.9803538,40.6319437 42.5006323,43.8415908 42.87,47.01 C43.0951005,49.0721875 43.5033794,51.1102353 44.09,53.1 C44.4048963,54.1305317 44.802868,55.1338218 45.28,56.1 C45.8718004,57.0090608 46.4061765,57.9542385 46.88,58.93 L24.78,58.99 C24.7,58.69 23.19,52.81 19.85,51.3 C19.23,51.52 18.57,51.74 17.9,51.97 C17.5823905,51.6995596 17.2290765,51.4741116 16.85,51.3 C14.44,52.14 11.5,53.11 9.27,53.67 C8.62676625,53.2742562 8.14753634,52.660132 7.92,51.94 C7.65806229,51.2276891 7.56229323,50.4649569 7.64,49.71 C7.87036773,48.9391054 7.94848689,48.1307419 7.87,47.33 C7.61,46.32 6.65,46.07 5.89,45.53 C5.27,45.09 6.38,43.68 6.38,43.68 C6.38,43.68 5.2,42.81 4.78,42.43 C4.34,42.07 4.96,41.45 5.51,40.28 C5.73694079,39.7719796 5.80323378,39.2067446 5.7,38.66 C5.49,37.59 3.87,37.18 3.07,36.59 C2.69,36.31 2.08,35.89 2.01,35.38 C1.9,34.67 2.74,33.67 3.15,33.17 C4.89454657,30.9217816 6.38996718,28.4908848 7.61,25.92 C7.77010631,25.6486227 7.86589137,25.3441631 7.89,25.03 C7.87,23.6 5.8,23.01 5.61,21.62 C5.58022555,21.2120559 5.65239212,20.803112 5.82,20.43 C6.39667192,19.2042401 6.89109856,17.9414478 7.3,16.65 C7.54612792,15.4653226 7.86336869,14.2965408 8.25,13.15 C9.08859812,10.8496676 10.3808376,8.74127689 12.05,6.95 C14.5,4.36 18.12,3.08 21.54,2.4 C24.5813721,1.73504394 27.6655865,1.28393999 30.77,1.05 C35.93,1.37 40.25,3.44 44.49,6.76 C47.1927291,8.77631392 49.1683037,11.6151058 50.12,14.85 C50.8451888,17.5213389 51.1852867,20.2825294 51.13,23.05 C51.110834,25.7831121 50.3129958,28.4541358 48.83,30.75 C47.34,33.1 45.39,35.14 44.26,37.71 Z" id="Shape" fill="#3F51B5"/><path d="M60,19 C60,19 51.49,30 41,30 C40.3313166,29.9971866 39.663421,29.9537734 39,29.87 C29.45,28.63 22,19 22,19 C22,19 29.45,9.37 39,8.13 C39.663421,8.0462266 40.3313166,8.00281338 41,8 C51.49,8 60,19 60,19 Z" id="Shape" fill="#DFC49C"/><path d="M56,19 C56,19 48.55,28.63 39,29.87 C29.45,28.63 22,19 22,19 C22,19 29.45,9.37 39,8.13 C48.55,9.37 56,19 56,19 Z" id="Shape" fill="#FFE0B2"/><path d="M52,19 C52.0020623,20.7880673 51.5660182,22.5494108 50.73,24.13 C47.6248086,25.330938 44.329143,25.964329 41,26 C37.670857,25.964329 34.3751914,25.330938 31.27,24.13 C29.5773655,20.9194307 29.5773655,17.0805693 31.27,13.87 C34.3751914,12.669062 37.670857,12.035671 41,12 C44.329143,12.035671 47.6248086,12.669062 50.73,13.87 C51.5660182,15.4505892 52.0020623,17.2119327 52,19 Z" id="Shape" fill="#00BCD4"/><path d="M31.27,13.87 C29.5773655,17.0805693 29.5773655,20.9194307 31.27,24.13 C27.9413749,22.8920442 24.816767,21.1628923 22,19 C24.816767,16.8371077 27.9413749,15.1079558 31.27,13.87 Z" id="Shape" fill="#ECF0F1"/><path d="M51.57,22.04 C52.3540464,19.3102417 52.0530931,16.3831123 50.73,13.87 C54.0586251,15.1079558 57.183233,16.8371077 60,19 C57.183233,21.1628923 54.0586251,22.8920442 50.73,24.13 C51.0816211,23.4643023 51.3631321,22.763876 51.57,22.04 Z" id="Shape" fill="#CFD8DC"/><path d="M51.57,22.04 C52.1433359,20.0538819 52.1433359,17.9461181 51.57,15.96 C53.223139,16.8329382 54.7959204,17.8502266 56.27,19 C54.7959204,20.1497734 53.223139,21.1670618 51.57,22.04 Z" id="Shape" fill="#F5F5F5"/><circle id="Oval" fill="#02A9F4" cx="41" cy="19" r="7"/><circle id="Oval" fill="#3F51B5" cx="41" cy="19" r="3"/><circle id="Oval" fill="#F5F5F5" cx="37" cy="16" r="3"/><circle id="Oval" fill="#F5F5F5" cx="45" cy="23" r="1"/><path d="M10.511,55 C8.86145152,54.9690108 7.4263849,53.8624583 6.977,52.275 C6.66129272,51.4143284 6.54869822,50.4923539 6.648,49.581 C6.682,49.318 6.739,49.05 6.798,48.781 C6.91941128,48.3932674 6.95356021,47.9834802 6.898,47.581 C6.817,47.267 6.586,47.11 5.998,46.774 C5.765,46.641 5.528,46.505 5.306,46.349 C4.98074391,46.1171358 4.76606133,45.7609003 4.713,45.365 C4.67448978,44.8623148 4.78770505,44.359639 5.038,43.922 C4.698,43.661 4.325,43.367 4.109,43.172 C3.185,42.417 3.798,41.333 4.164,40.686 C4.299,40.449 4.455,40.174 4.604,39.854 C4.74159405,39.5365137 4.78128854,39.1851827 4.718,38.845 C4.667,38.586 3.942,38.216 3.51,37.995 C3.14797678,37.8240989 2.80078202,37.6234083 2.472,37.395 C1.75470729,36.9902386 1.23115797,36.313086 1.02,35.517 C0.86,34.487 1.62,33.458 2.345,32.575 C4.05560327,30.369443 5.52247783,27.985227 6.72,25.464 C6.79697882,25.3281355 6.85421996,25.1820023 6.89,25.03 C6.89,24.755 6.565,24.439 6.076,23.991 C5.3374331,23.4449531 4.82021123,22.6511932 4.619,21.755 C4.56192334,21.1842424 4.65284498,20.6084053 4.883,20.083 C5.062,19.611 5.266,19.155 5.47,18.699 C5.82566937,17.9679886 6.11224857,17.2053397 6.326,16.421 L6.426,15.999 C6.65602311,14.9179422 6.95190812,13.8519547 7.312,12.807 C8.19404573,10.3778111 9.55841114,8.15217091 11.323,6.264 C13.559,3.9 16.836,2.316 21.345,1.419 C24.1743439,0.806207639 27.0382776,0.365730909 29.921,0.1 C30.2782656,0.0717760184 30.6234499,0.236294907 30.8265254,0.531583993 C31.0296009,0.826873079 31.0597155,1.20807093 30.9055254,1.53158399 C30.7513353,1.85509706 30.4362656,2.07177602 30.079,2.1 C27.2756508,2.35843156 24.4905437,2.78654994 21.739,3.382 C17.704,4.182 14.689,5.617 12.776,7.639 C11.1967986,9.33056659 9.97629737,11.324256 9.188,13.5 C8.85614522,14.4674021 8.58396707,15.4542566 8.373,16.455 L8.273,16.881 C8.03405513,17.788547 7.70821606,18.6709581 7.3,19.516 C7.111,19.937 6.923,20.357 6.76,20.786 C6.66364086,21.0015614 6.61063423,21.2339751 6.604,21.47 C6.649,21.796 7.03,22.146 7.434,22.517 C8.25904392,23.1003679 8.79170832,24.0118401 8.895,25.017 C8.87635428,25.4916102 8.74434083,25.9548574 8.51,26.368 C7.2548892,29.0038306 5.71756418,31.4957388 3.925,33.8 C3.163,34.727 3.005,35.1 3,35.247 C3.18518784,35.4261779 3.38598284,35.5884872 3.6,35.732 C3.86136569,35.9140729 4.13730073,36.0742824 4.425,36.211 C5.277,36.647 6.446,37.245 6.686,38.465 C6.82865982,39.2207273 6.73544627,40.0020454 6.419,40.703 C6.244,41.073 6.065,41.393 5.908,41.668 C5.859,41.755 5.808,41.851 5.758,41.938 C6.172,42.272 6.738,42.696 6.978,42.872 C7.19643076,43.0334948 7.33976225,43.2769033 7.37503403,43.5462515 C7.41030582,43.8155997 7.33448237,44.0877071 7.165,44.3 C7.01691908,44.4930204 6.88797779,44.6999963 6.78,44.918 L6.987,45.036 C7.87220583,45.4166291 8.54814599,46.1633751 8.839,47.082 C8.98564963,47.7876772 8.95576498,48.5186489 8.752,49.21 C8.706,49.419 8.658,49.627 8.632,49.837 C8.5729723,50.4418114 8.65336419,51.0521056 8.867,51.621 C9.08520556,52.5451371 9.99375512,53.1324511 10.926,52.952 C13.8403482,52.2516858 16.7117997,51.3835725 19.526,50.352 C20.0479091,50.1705745 20.6180744,50.4465909 20.7995,50.9685 C20.9809255,51.4904091 20.7049091,52.0605744 20.183,52.242 C17.2887222,53.3027843 14.334635,54.19265 11.336,54.907 C11.0649467,54.96639 10.7884727,54.9975562 10.511,55 Z M5.411,41.659 L5.443,41.688 C5.43377066,41.6766361 5.42374541,41.6659425 5.413,41.656 L5.411,41.659 Z" id="Shape" fill="#000000"/><path d="M24.78,60 C24.3194886,59.9998779 23.9186017,59.6852787 23.809,59.238 C23.421,57.657 21.88,53.314 19.438,52.211 C19.0639436,52.0419148 18.8312137,51.6614066 18.8510746,51.25139 C18.8709354,50.8413735 19.1393525,50.4851405 19.528,50.353 C20.57,49.999 21.515,49.669 22.258,49.409 C22.951,49.167 23.473,48.985 23.744,48.898 C27.901,47.583 28.744,46.082 28.72,45.053 C28.7070213,44.5007153 29.1442153,44.0424787 29.6965,44.0295 C30.2487847,44.0165213 30.7070213,44.4537153 30.72,45.006 C30.778,47.498 28.636,49.449 24.352,50.806 C24.093,50.889 23.588,51.065 22.918,51.299 L22.018,51.614 C23.6685471,53.4421006 24.8727465,55.6280067 25.536,58 L48.218,57.937 L48.151,57.837 C47.8630969,57.4195592 47.6041562,56.9828684 47.376,56.53 C46.879054,55.5216399 46.4640482,54.4749292 46.135,53.4 C45.5288621,51.3528819 45.1078369,49.2554538 44.877,47.133 C44.4836273,43.7875409 44.9896868,40.3977013 46.343,37.313 C46.5639139,36.8065549 47.1535549,36.5750861 47.66,36.796 C48.1664451,37.0169139 48.3979139,37.6065549 48.177,38.113 C46.965088,40.8704747 46.5114636,43.9015422 46.863,46.893 C47.0788071,48.8965347 47.4747419,50.8765435 48.046,52.809 C48.3444759,53.7867332 48.7220564,54.7385437 49.175,55.655 C49.3660492,56.0298282 49.5822082,56.3913183 49.822,56.737 C50.2467748,57.3198965 50.587758,57.9594505 50.835,58.637 C50.9304293,58.9404437 50.8757998,59.2711879 50.6878608,59.5278273 C50.4999218,59.7844667 50.201095,59.9363833 49.883,59.937 L24.783,60.007 L24.78,60 Z" id="Shape" fill="#000000"/><path d="M11.194,18.567 C10.8884083,18.5671753 10.5995104,18.4276105 10.4097039,18.1881114 C10.2198975,17.9486123 10.1500194,17.635471 10.22,17.338 L10.32,16.905 C10.5131052,15.9892005 10.7602032,15.085623 11.06,14.199 C11.7555725,12.2746582 12.8327926,10.5106976 14.227,9.013 C15.7596426,7.53520641 17.6473921,6.47750189 19.708,5.942 C20.0522577,5.82944433 20.4304681,5.91183364 20.6967164,6.1573819 C20.9629648,6.40293017 21.0756292,6.7732514 20.9912433,7.12547458 C20.9068574,7.47769775 20.6386132,7.75676066 20.29,7.855 C18.5634442,8.29302828 16.9771231,9.16414541 15.681,10.386 C14.4733406,11.6864483 13.5401016,13.2169058 12.937,14.886 C12.6667971,15.6958165 12.4434278,16.5205136 12.268,17.356 L12.168,17.791 C12.0636686,18.2449301 11.6597655,18.5667256 11.194,18.567 Z" id="Shape" fill="#000000"/><circle id="Oval" fill="#000000" cx="10" cy="21" r="1"/><path d="M41,31 C30.141,31 21.568,20.077 21.209,19.612 C20.9301437,19.2516476 20.9301437,18.7483524 21.209,18.388 C21.568,17.923 30.141,7 41,7 C51.859,7 60.432,17.923 60.791,18.388 C61.0698563,18.7483524 61.0698563,19.2516476 60.791,19.612 C60.432,20.077 51.859,31 41,31 Z M23.3,19 C25.245,21.26 32.529,29 41,29 C49.471,29 56.759,21.261 58.7,19 C56.756,16.74 49.472,9 41,9 C32.528,9 25.241,16.739 23.3,19 Z" id="Shape" fill="#000000"/><path d="M40.3,9.02 C39.7477153,9.03215026 39.2901503,8.59428475 39.278,8.042 C39.2658497,7.48971525 39.7037153,7.03215026 40.256,7.02 C40.5,7.01 40.755,7 41,7 L41.12,7 C41.327,7 41.546,7.01 41.754,7.021 C42.2970944,7.04947617 42.7199089,7.5032498 42.71,8.047 C42.6996629,8.58665527 42.2597534,9.01901078 41.72,9.02 L41.7,9.02 C41.474,9.009 41.292,9 41.12,9 L41,9 C40.784,9 40.561,9.009 40.345,9.019 L40.3,9.02 Z" id="Shape" fill="#000000"/><path d="M41,31 L40.88,31 C40.673,31 40.454,30.99 40.246,30.979 C39.6959955,30.9535997 39.2613028,30.5035546 39.255,29.953 C39.2520679,29.6971701 39.3511651,29.4507104 39.5303793,29.2681184 C39.7095934,29.0855264 39.95416,28.9818449 40.21,28.98 L40.354,28.98 C40.526,28.99 40.708,28.999 40.88,28.999 L41,28.999 C41.216,28.999 41.439,28.99 41.655,28.98 L41.75,29.98 L41.72,30.98 C41.5,30.99 41.245,31 41,31 Z" id="Shape" fill="#000000"/><path d="M31.271,25.13 C30.9001794,25.1304714 30.5595439,24.9257051 30.386,24.598 C28.5369324,21.093621 28.5369324,16.902379 30.386,13.398 C30.5490135,13.0747181 30.8740364,12.8647981 31.2357552,12.8491752 C31.597474,12.8335523 31.939386,13.014667 32.129666,13.3226899 C32.3199459,13.6307128 32.328871,14.0175289 32.153,14.334 C30.6153914,17.2518262 30.6153914,20.7401738 32.153,23.658 C32.3170031,23.9676873 32.3069327,24.340627 32.126456,24.6410124 C31.9459792,24.9413978 31.6214324,25.1253946 31.271,25.126 L31.271,25.13 Z" id="Shape" fill="#000000"/><path d="M50.729,25.13 C50.3785676,25.1293946 50.0540208,24.9453978 49.873544,24.6450124 C49.6930673,24.344627 49.6829969,23.9716873 49.847,23.662 C51.3846086,20.7441738 51.3846086,17.2558262 49.847,14.338 C49.671129,14.0215289 49.6800541,13.6347128 49.870334,13.3266899 C50.060614,13.018667 50.402526,12.8375523 50.7642448,12.8531752 C51.1259636,12.8687981 51.4509865,13.0787181 51.614,13.402 C53.4630676,16.906379 53.4630676,21.097621 51.614,24.602 C51.4393812,24.928157 51.0989574,25.1312573 50.729,25.13 Z" id="Shape" fill="#000000"/><path d="M34,20 C33.4477153,20 33,19.5522847 33,19 C33.0049599,14.5837781 36.5837781,11.0049599 41,11 C41.5522847,11 42,11.4477153 42,12 C42,12.5522847 41.5522847,13 41,13 C37.6876624,13.0033074 35.0033074,15.6876624 35,19 C35,19.2652165 34.8946432,19.5195704 34.7071068,19.7071068 C34.5195704,19.8946432 34.2652165,20 34,20 Z" id="Shape" fill="#000000"/><path d="M41,27 C40.4477153,27 40,26.5522847 40,26 C40,25.4477153 40.4477153,25 41,25 C44.3123376,24.9966926 46.9966926,22.3123376 47,19 C47,18.4477153 47.4477153,18 48,18 C48.5522847,18 49,18.4477153 49,19 C48.9950401,23.4162219 45.4162219,26.9950401 41,27 Z" id="Shape" fill="#000000"/><path d="M41,22 C39.3431458,22 38,20.6568542 38,19 C38,17.3431458 39.3431458,16 41,16 C42.6568542,16 44,17.3431458 44,19 C44,20.6568542 42.6568542,22 41,22 Z M41,18 C40.4477153,18 40,18.4477153 40,19 C40,19.5522847 40.4477153,20 41,20 C41.5522847,20 42,19.5522847 42,19 C42,18.4477153 41.5522847,18 41,18 Z" id="Shape" fill="#000000"/><path d="M41,27 C30.271,27 21.724,20.067 21.364,19.772 C21.1332856,19.5820424 20.9996225,19.2988529 20.9996225,19 C20.9996225,18.7011471 21.1332856,18.4179576 21.364,18.228 C21.724,17.933 30.271,11 41,11 C51.729,11 60.276,17.933 60.636,18.228 C60.8667144,18.4179576 61.0003775,18.7011471 61.0003775,19 C61.0003775,19.2988529 60.8667144,19.5820424 60.636,19.772 C60.276,20.067 51.729,27 41,27 Z M23.677,19 C26.21,20.777 33.067,25 41,25 C48.933,25 55.79,20.777 58.323,19 C55.79,17.223 48.933,13 41,13 C33.067,13 26.21,17.223 23.677,19 Z" id="Shape" fill="#000000"/><path d="M41,38 C40.4477153,38 40,37.5522847 40,37 L40,34 C40,33.4477153 40.4477153,33 41,33 C41.5522847,33 42,33.4477153 42,34 L42,37 C42,37.5522847 41.5522847,38 41,38 Z" id="Shape" fill="#000000"/><path d="M50,35.588 C49.6423863,35.5883484 49.3118068,35.3977028 49.133,35.088 L47.633,32.488 C47.4515156,32.1784296 47.4498167,31.7953505 47.6285481,31.4841826 C47.8072796,31.1730146 48.1390366,30.981469 48.4978817,30.9822579 C48.8567268,30.9830468 49.1876384,31.1760492 49.365,31.488 L50.865,34.088 C51.0435415,34.3972425 51.0436393,34.7782222 50.8652566,35.0875563 C50.6868739,35.3968904 50.3570824,35.587634 50,35.588 Z" id="Shape" fill="#000000"/><path d="M48.5,7.01 C48.1429176,7.00963395 47.8131261,6.81889043 47.6347434,6.50955632 C47.4563607,6.2002222 47.4564585,5.81924248 47.635,5.51 L49.135,2.91 C49.3123616,2.59804922 49.6432732,2.40504678 50.0021183,2.4042579 C50.3609634,2.40346901 50.6927204,2.59501463 50.8714519,2.90618258 C51.0501833,3.21735053 51.0484844,3.60042958 50.867,3.91 L49.367,6.51 C49.1881932,6.81970282 48.8576137,7.01034843 48.5,7.01 Z" id="Shape" fill="#000000"/><path d="M41,5 C40.4477153,5 40,4.55228475 40,4 L40,1 C40,0.44771525 40.4477153,1.01453063e-16 41,0 C41.5522847,-1.01453063e-16 42,0.44771525 42,1 L42,4 C42,4.55228475 41.5522847,5 41,5 Z" id="Shape" fill="#000000"/><path d="M33.5,7.01 C33.1423863,7.01034843 32.8118068,6.81970282 32.633,6.51 L31.133,3.91 C30.9515156,3.60042958 30.9498167,3.21735053 31.1285481,2.90618258 C31.3072796,2.59501463 31.6390366,2.40346901 31.9978817,2.4042579 C32.3567268,2.40504678 32.6876384,2.59804922 32.865,2.91 L34.365,5.51 C34.5435415,5.81924248 34.5436393,6.2002222 34.3652566,6.50955632 C34.1868739,6.81889043 33.8570824,7.00963395 33.5,7.01 Z" id="Shape" fill="#000000"/><path d="M32,35.588 C31.6429176,35.587634 31.3131261,35.3968904 31.1347434,35.0875563 C30.9563607,34.7782222 30.9564585,34.3972425 31.135,34.088 L32.635,31.488 C32.8123616,31.1760492 33.1432732,30.9830468 33.5021183,30.9822579 C33.8609634,30.981469 34.1927204,31.1730146 34.3714519,31.4841826 C34.5501833,31.7953505 34.5484844,32.1784296 34.367,32.488 L32.867,35.088 C32.6881932,35.3977028 32.3576137,35.5883484 32,35.588 Z" id="Shape" fill="#000000"/></g></g></svg>
