<svg xmlns="http://www.w3.org/2000/svg" xmlns:xlink="http://www.w3.org/1999/xlink" width="36" height="36" viewBox="0 0 36 36"><defs><linearGradient id="a"><stop offset="0" stop-color="#ff1679"/><stop offset="1" stop-color="#ff770b"/></linearGradient><linearGradient id="b" x1="992.183" x2="1019.298" y1="516.081" y2="545.959" gradientTransform="translate(-1144.029 422.597) scale(1.15339)" gradientUnits="userSpaceOnUse" xlink:href="#a"/></defs><g fill="#fff" transform="translate(2 -1017.362)"><rect width="36" height="36" x="-2" y="1017.362" fill="url(#b)" rx="7.608" ry="7.608"/><path style="text-indent:0;text-align:start;line-height:normal;text-transform:none;block-progression:tb" d="M 17.59375 12 L 8.5 12.03125 A 0.50005005 0.50005005 0 0 0 8.25 12.09375 A 0.50004999 0.50004999 0 0 0 8.21875 12.09375 A 0.50005005 0.50005005 0 0 0 8.1875 12.125 A 0.50004999 0.50004999 0 0 0 8.15625 12.1875 A 0.50004999 0.50004999 0 0 0 8.09375 12.25 A 0.50005005 0.50005005 0 0 0 8.0625 12.28125 A 0.50004999 0.50004999 0 0 0 8 12.4375 A 0.50005005 0.50005005 0 0 0 8 12.5 A 0.50004999 0.50004999 0 0 0 8 12.53125 L 8 23.90625 A 0.50004999 0.50004999 0 0 0 8.5 24.40625 L 20.59375 24.40625 C 20.714152 24.56475 20.824207 24.7305 20.96875 24.875 C 22.695024 26.6013 25.495919 26.5944 27.21875 24.875 C 28.941587 23.1522 28.945071 20.3513 27.21875 18.625 C 27.21135 18.615 27.19489 18.60175 27.1875 18.59375 L 27.1875 12.59375 A 0.50005005 0.50005005 0 0 0 26.6875 12 L 17.59375 12 z M 10.25 13.03125 L 24.9375 13.03125 L 17.59375 17.625 L 10.25 13.03125 z M 26.1875 13.40625 L 26.1875 17.875 C 25.143426 17.3073 23.930581 17.19975 22.8125 17.53125 C 22.79223 17.54125 22.7702 17.5565 22.75 17.5625 C 22.571837 17.6185 22.389953 17.6714 22.21875 17.75 C 22.096828 17.804 21.992425 17.8714 21.875 17.9375 C 21.77902 17.9925 21.686166 18.03065 21.59375 18.09375 C 21.371166 18.24365 21.166534 18.4274 20.96875 18.625 C 20.95707 18.637 20.94902 18.64425 20.9375 18.65625 C 20.763245 18.83465 20.60513 19.01955 20.46875 19.21875 C 20.4048 19.31075 20.337388 19.4043 20.28125 19.5 C 20.22189 19.6034 20.174989 19.7053 20.125 19.8125 C 19.581375 20.9401 19.531963 22.25065 20 23.40625 L 9 23.40625 L 9 13.4375 L 17.34375 18.625 A 0.50005005 0.50005005 0 0 0 17.875 18.625 L 26.1875 13.40625 z M 24.03125 18.3125 C 24.157589 18.3125 24.280201 18.33275 24.40625 18.34375 C 24.49446 18.35375 24.568736 18.36 24.65625 18.375 C 24.771981 18.395 24.886256 18.43675 25 18.46875 C 25.09752 18.49575 25.185931 18.5265 25.28125 18.5625 C 25.385881 18.6025 25.492443 18.6369 25.59375 18.6875 C 25.68843 18.7345 25.784016 18.78735 25.875 18.84375 C 25.95698 18.89475 26.046429 18.9415 26.125 19 L 21.34375 23.78125 C 21.30663 23.73125 21.252831 23.6765 21.21875 23.625 C 21.19635 23.591 21.20857 23.56575 21.1875 23.53125 C 21.09606 23.38275 21.004249 23.2202 20.9375 23.0625 C 20.90611 22.9885 20.86962 22.91955 20.84375 22.84375 C 20.80197 22.72175 20.777598 22.59385 20.75 22.46875 C 20.72972 22.37675 20.70002 22.2807 20.6875 22.1875 C 20.6725 22.0765 20.66032 21.9868 20.65625 21.875 C 20.65285 21.78 20.683053 21.6568 20.6875 21.5625 C 20.6926 21.4535 20.70325 21.3582 20.71875 21.25 C 20.73363 21.1468 20.72573 21.039 20.75 20.9375 C 20.77215 20.8445 20.8137 20.74745 20.84375 20.65625 C 20.87859 20.55085 20.923496 20.44585 20.96875 20.34375 C 21.01044 20.24975 21.043118 20.18465 21.09375 20.09375 C 21.14434 20.00275 21.19068 19.8991 21.25 19.8125 C 21.34573 19.6728 21.474928 19.53375 21.59375 19.40625 C 21.62093 19.37725 21.62787 19.3415 21.65625 19.3125 C 21.7445 19.2245 21.842454 19.17035 21.9375 19.09375 C 22.01709 19.02975 22.103757 18.96225 22.1875 18.90625 C 22.287699 18.83925 22.394731 18.77405 22.5 18.71875 C 22.58982 18.67175 22.657189 18.63245 22.75 18.59375 C 22.859927 18.54775 22.980459 18.50215 23.09375 18.46875 C 23.18618 18.44175 23.280973 18.42625 23.375 18.40625 C 23.496956 18.38125 23.626311 18.35575 23.75 18.34375 C 23.83919 18.33375 23.941717 18.3135 24.03125 18.3125 z M 26.8125 19.71875 C 27.81627 21.06435 27.750037 22.9687 26.53125 24.1875 C 25.312641 25.4061 23.408222 25.5055 22.0625 24.5 L 26.8125 19.71875 z " color="#000" font-family="sans-serif" font-weight="400" overflow="visible" transform="translate(-2 1017.362)"/></g></svg>