<?xml version="1.0" encoding="iso-8859-1"?>
<!-- Generator: Adobe Illustrator 21.0.0, SVG Export Plug-In . SVG Version: 6.00 Build 0)  -->
<svg xmlns="http://www.w3.org/2000/svg" xmlns:xlink="http://www.w3.org/1999/xlink" version="1.1" id="Capa_1" x="0px" y="0px" viewBox="0 0 515.618 515.618" style="enable-background:new 0 0 515.618 515.618;" xml:space="preserve" width="512" height="512">
<g>
	<path style="fill:#FFF4F1;" d="M442.632,260.119l-28.569-38.551l-84.174,62.379c-18.085-28.488-45.765-50.28-78.494-60.838V57.356   h3.447c13.71,0,24.928-11.218,24.928-24.928v0c0-13.71-11.218-24.928-24.928-24.928h-95.394c-13.71,0-24.928,11.218-24.928,24.928   v0c0,13.71,11.218,24.928,24.928,24.928h2.207v165.752c-58.69,18.934-101.152,73.997-101.152,138.987   c0,80.646,65.376,146.022,146.022,146.022s146.022-65.376,146.022-146.022c0-11.178-1.261-22.061-3.64-32.52L442.632,260.119z"/>
	<path style="fill:#ECEDEF;" d="M249.77,32.428L249.77,32.428c0,13.711-11.218,24.928-24.928,24.928h-3.447v178.891   c32.729,10.558,68.845,24.214,108.494,47.699l0,0c-17.562-21.38-51.556-52.148-78.494-60.838V57.356h3.447   c13.71,0,24.928-11.218,24.928-24.928v0c0-13.71-11.218-24.928-24.928-24.928h-30C238.552,7.5,249.77,18.718,249.77,32.428z"/>
	<path style="fill:#ECEDEF;" d="M442.632,260.119l-28.569-38.551l-19.365,14.351l17.934,24.2l-93.725,69.457   c2.379,10.458,3.64,21.341,3.64,32.52c0,75.582-57.423,137.75-131.022,145.26c4.932,0.503,9.936,0.762,15,0.762   c80.646,0,146.022-65.376,146.022-146.022c0-11.178-1.261-22.061-3.64-32.52L442.632,260.119z"/>
	<path style="fill:#A2DB18;" d="M60.585,358.066c-0.036,1.341-0.082,2.68-0.082,4.03c0,80.646,65.376,146.022,146.022,146.022   s146.022-65.376,146.022-146.022c0-1.348-0.02-2.691-0.057-4.03H60.585z"/>
	<path style="fill:#6ABA0F;" d="M352.49,358.065h-30c0.036,1.339,0.057,2.682,0.057,4.03c0,75.582-57.423,137.75-131.022,145.26   c4.932,0.503,9.936,0.762,15,0.762c80.646,0,146.022-65.376,146.022-146.022C352.547,360.747,352.527,359.405,352.49,358.065z"/>
	<path d="M461.067,270.245l-52.504-68.509c-2.519-3.289-7.229-3.911-10.515-1.391c-3.288,2.52-3.911,7.227-1.391,10.515l6.975,9.102   l-71.903,53.285c-18.087-25.441-43.565-44.869-72.835-55.495V64.604c15.974-2.001,28.375-15.668,28.375-32.176   C287.27,14.547,272.723,0,254.842,0h-95.395c-17.881,0-32.428,14.547-32.428,32.428c0,16.079,11.763,29.462,27.135,31.996v71.358   c0,4.142,3.358,7.5,7.5,7.5s7.5-3.358,7.5-7.5V64.856h37.371c4.142,0,7.5-3.358,7.5-7.5s-3.358-7.5-7.5-7.5h-44.871h-2.207   c-9.61,0-17.428-7.818-17.428-17.428S149.837,15,159.447,15h95.395c9.61,0,17.428,7.818,17.428,17.428s-7.818,17.428-17.428,17.428   h-3.447c-4.142,0-7.5,3.358-7.5,7.5v46.287h-27.506c-4.142,0-7.5,3.358-7.5,7.5s3.358,7.5,7.5,7.5h27.506v26.518h-27.506   c-4.142,0-7.5,3.358-7.5,7.5s3.358,7.5,7.5,7.5h27.506v26.518h-27.506c-4.142,0-7.5,3.358-7.5,7.5s3.358,7.5,7.5,7.5h27.506v21.43   c0,3.255,2.1,6.139,5.197,7.138c30.672,9.895,57.118,30.393,74.465,57.72c1.117,1.759,2.914,2.974,4.962,3.354   c2.049,0.38,4.162-0.108,5.835-1.348l78.148-57.914l19.638,26.5l-87.699,64.991c-2.391,1.771-3.508,4.789-2.848,7.689   c2.291,10.072,3.453,20.454,3.453,30.856c0,76.381-62.141,138.522-138.522,138.522c-75.221,0-136.63-60.268-138.478-135.052H273.79   c4.142,0,7.5-3.358,7.5-7.5s-3.358-7.5-7.5-7.5H68.479c2.097-25.654,11.188-49.922,26.62-70.773   c17.384-23.489,41.195-40.622,68.859-49.546c3.098-0.999,5.197-3.883,5.197-7.138v-55.326c0-4.142-3.358-7.5-7.5-7.5   s-7.5,3.358-7.5,7.5v49.967c-28.45,10.299-52.951,28.579-71.113,53.12c-19.651,26.553-30.039,58.098-30.039,91.226   c0,84.652,68.87,153.522,153.522,153.522c84.652,0,153.522-68.87,153.522-153.522c0-9.866-0.944-19.72-2.811-29.357l84.714-62.78   l7.212,9.41c1.477,1.927,3.705,2.938,5.958,2.938c1.591,0,3.196-0.505,4.557-1.548C462.964,278.24,463.587,273.533,461.067,270.245   z"/>
</g>















</svg>
