<svg xmlns="http://www.w3.org/2000/svg" xmlns:xlink="http://www.w3.org/1999/xlink" width="36" height="36" viewBox="0 0 36 36"><defs><linearGradient id="a"><stop offset="0" stop-color="#16ff6a"/><stop offset="1" stop-color="#0090a5"/></linearGradient><linearGradient id="b" x1="1073.403" x2="1097.116" y1="516.451" y2="544.308" gradientTransform="translate(-1234.904 422.597) scale(1.15339)" gradientUnits="userSpaceOnUse" xlink:href="#a"/></defs><g fill="#fff" transform="translate(2 -1017.362)"><rect width="36" height="36" x="-2" y="1017.362" fill="url(#b)" rx="7.608" ry="7.608"/><path style="text-indent:0;text-align:start;line-height:normal;text-transform:none;block-progression:tb" d="M 17.96875 8.5 C 17.8711 8.51 17.765663 8.53475 17.6875 8.59375 L 15.1875 10.46875 L 10.5 10.46875 L 10.5 10.96875 L 10.5 13.96875 L 8.8125 15.25 A 0.50005005 0.50005005 0 0 0 8.53125 15.875 A 0.50004996 0.50004996 0 0 0 8.5 16 L 8.5 26.96875 A 0.50004999 0.50004999 0 0 0 8.5 27.03125 A 0.50004999 0.50004999 0 0 0 8.53125 27.125 A 0.50004996 0.50004996 0 0 0 8.53125 27.1875 A 0.50004996 0.50004996 0 0 0 8.5625 27.21875 A 0.50004999 0.50004999 0 0 0 8.71875 27.40625 A 0.50004996 0.50004996 0 0 0 8.75 27.40625 A 0.50004999 0.50004999 0 0 0 8.78125 27.4375 A 0.50004999 0.50004999 0 0 0 8.90625 27.46875 A 0.50004999 0.50004999 0 0 0 8.96875 27.5 A 0.50004996 0.50004996 0 0 0 9 27.5 A 0.50004999 0.50004999 0 0 0 9.03125 27.5 L 26.90625 27.5 A 0.50004999 0.50004999 0 0 0 27.5 26.90625 L 27.5 16 A 0.50004996 0.50004996 0 0 0 27.46875 15.8125 A 0.50005005 0.50005005 0 0 0 26.96875 15.21875 A 0.50005005 0.50005005 0 0 0 26.84375 15.21875 C 27.256439 14.54535 27.500002 13.7831 27.5 12.9375 C 27.500019 10.496 25.530207 8.5 23.09375 8.5 C 21.842748 8.5 20.711237 9.0334 19.90625 9.875 L 18.28125 8.59375 C 18.20037 8.53275 18.101029 8.505 18 8.5 C 17.9837 8.4999 17.98499 8.5005 17.96875 8.5 z M 23.09375 9.5 C 24.027979 9.5 24.852183 9.86305 25.46875 10.46875 C 25.47883 10.47875 25.49004 10.49 25.5 10.5 C 26.11867 11.1206 26.500002 11.9862 26.5 12.9375 C 26.500002 13.8887 26.11867 14.72365 25.5 15.34375 C 25.21558 15.62885 24.87042 15.86075 24.5 16.03125 C 24.066322 16.22985 23.603004 16.34375 23.09375 16.34375 C 21.199353 16.34375 19.656247 14.84 19.65625 12.9375 C 19.656231 11.035 21.199353 9.5 23.09375 9.5 z M 18 9.625 L 19.125 10.46875 L 16.84375 10.46875 L 18 9.625 z M 24.5625 11.40625 A 0.50004999 0.50004999 0 0 0 24.5 11.4375 A 0.50004999 0.50004999 0 0 0 24.4375 11.4375 A 0.50004999 0.50004999 0 0 0 24.40625 11.46875 A 0.50004999 0.50004999 0 0 0 24.375 11.46875 A 0.50004999 0.50004999 0 0 0 24.25 11.5625 L 22.59375 13.21875 L 21.90625 12.5625 A 0.50004999 0.50004999 0 0 0 21.53125 12.40625 A 0.50004999 0.50004999 0 0 0 21.34375 12.46875 A 0.50004999 0.50004999 0 0 0 21.3125 12.46875 A 0.50004999 0.50004999 0 0 0 21.25 12.5 A 0.50004999 0.50004999 0 0 0 21.21875 12.53125 A 0.50004999 0.50004999 0 0 0 21.1875 12.5625 A 0.50004999 0.50004999 0 0 0 21.15625 12.59375 A 0.50004999 0.50004999 0 0 0 21.125 12.65625 A 0.50004999 0.50004999 0 0 0 21.09375 12.6875 A 0.50004999 0.50004999 0 0 0 21.09375 12.75 A 0.50004999 0.50004999 0 0 0 21.0625 12.78125 A 0.50004999 0.50004999 0 0 0 21.0625 12.84375 A 0.50004999 0.50004999 0 0 0 21.0625 12.875 A 0.50004999 0.50004999 0 0 0 21.0625 12.9375 A 0.50004999 0.50004999 0 0 0 21.0625 13 A 0.50004999 0.50004999 0 0 0 21.0625 13.03125 A 0.50004999 0.50004999 0 0 0 21.09375 13.09375 A 0.50004999 0.50004999 0 0 0 21.09375 13.125 A 0.50004999 0.50004999 0 0 0 21.125 13.1875 A 0.50004999 0.50004999 0 0 0 21.15625 13.21875 A 0.50004999 0.50004999 0 0 0 21.1875 13.25 A 0.50004999 0.50004999 0 0 0 21.21875 13.28125 L 21.46875 13.53125 L 22.1875 14.1875 A 0.50004999 0.50004999 0 0 0 22.96875 14.28125 L 24.5 12.71875 L 24.96875 12.28125 A 0.50004999 0.50004999 0 0 0 25 12.25 A 0.50004999 0.50004999 0 0 0 25.03125 12.1875 A 0.50004999 0.50004999 0 0 0 25.0625 12.15625 A 0.50004999 0.50004999 0 0 0 25.0625 12.09375 A 0.50004999 0.50004999 0 0 0 25.09375 12.0625 A 0.50004999 0.50004999 0 0 0 25.09375 12 A 0.50004999 0.50004999 0 0 0 25.125 11.96875 A 0.50004999 0.50004999 0 0 0 25.125 11.90625 A 0.50004999 0.50004999 0 0 0 25.125 11.875 A 0.50004999 0.50004999 0 0 0 25.09375 11.8125 A 0.50004999 0.50004999 0 0 0 25.09375 11.75 A 0.50004999 0.50004999 0 0 0 25.0625 11.71875 A 0.50004999 0.50004999 0 0 0 25.0625 11.6875 A 0.50004999 0.50004999 0 0 0 25.03125 11.625 A 0.50004999 0.50004999 0 0 0 25 11.59375 A 0.50004999 0.50004999 0 0 0 24.96875 11.5625 A 0.50004999 0.50004999 0 0 0 24.9375 11.53125 A 0.50004999 0.50004999 0 0 0 24.875 11.5 A 0.50004999 0.50004999 0 0 0 24.84375 11.46875 A 0.50004999 0.50004999 0 0 0 24.78125 11.4375 A 0.50004999 0.50004999 0 0 0 24.75 11.4375 A 0.50004999 0.50004999 0 0 0 24.6875 11.40625 A 0.50004999 0.50004999 0 0 0 24.65625 11.40625 A 0.50004999 0.50004999 0 0 0 24.59375 11.40625 A 0.50004999 0.50004999 0 0 0 24.5625 11.40625 z M 11.5 11.46875 L 18.9375 11.46875 C 18.827317 11.78395 18.755142 12.12605 18.71875 12.46875 L 14.5 12.46875 L 14.5 13.53125 L 18.71875 13.53125 C 18.76467 13.86715 18.851796 14.1922 18.96875 14.5 L 13.5 14.5 L 13.5 15.5625 L 19.53125 15.5625 C 19.796555 15.9201 20.141406 16.2364 20.5 16.5 C 21.227533 17.0282 22.129379 17.34375 23.09375 17.34375 C 23.222239 17.34375 23.342995 17.3235 23.46875 17.3125 L 18 20.75 L 11.5 16.6875 L 11.5 14.46875 L 11.5 13.21875 L 11.5 11.46875 z M 20.5 16.5 L 15.5 16.5 L 15.5 17.5625 L 20.5 17.5625 L 20.5 16.5 z M 10.5 15.21875 L 10.5 16.0625 L 9.875 15.6875 L 10.5 15.21875 z M 26.5 16.59375 L 26.5 26.0625 L 21.28125 22.59375 A 0.50004999 0.50004999 0 0 0 21 22.5 A 0.50004999 0.50004999 0 0 0 20.71875 23.40625 L 25.34375 26.5 L 10.65625 26.5 L 15.28125 23.40625 A 0.50004999 0.50004999 0 0 0 15 22.5 A 0.50004999 0.50004999 0 0 0 14.71875 22.59375 L 9.5 26.0625 L 9.5 16.625 L 10.5 17.25 L 17.71875 21.75 L 17.75 21.78125 A 0.50005005 0.50005005 0 0 0 17.78125 21.78125 A 0.50005005 0.50005005 0 0 0 17.84375 21.8125 A 0.50005005 0.50005005 0 0 0 17.875 21.8125 A 0.50005005 0.50005005 0 0 0 17.90625 21.8125 A 0.50005005 0.50005005 0 0 0 17.96875 21.84375 A 0.50005005 0.50005005 0 0 0 18.09375 21.8125 A 0.50005005 0.50005005 0 0 0 18.1875 21.78125 A 0.50005005 0.50005005 0 0 0 18.21875 21.78125 L 18.25 21.75 L 25.5 17.21875 L 26.5 16.59375 z " color="#000" font-family="sans-serif" font-weight="400" overflow="visible" transform="translate(-2 1017.362)"/></g></svg>