<?xml version="1.0" encoding="iso-8859-1"?>
<!-- Generator: Adobe Illustrator 19.0.0, SVG Export Plug-In . SVG Version: 6.00 Build 0)  -->
<svg version="1.1" id="Capa_1" xmlns="http://www.w3.org/2000/svg" xmlns:xlink="http://www.w3.org/1999/xlink" x="0px" y="0px"
	 viewBox="0 0 480 480" style="enable-background:new 0 0 480 480;" xml:space="preserve">
<g>
	<g>
		<path d="M363.68,462.604c7.927-8.773,12.317-20.176,12.32-32V415.3c0.083-18.221-11.889-34.302-29.368-39.448L283.6,357.004
			l-41.952-77.352l228.44-267.856l-12.176-10.4L253.6,240.916l-61.6-61.6L326.248,11.604l-12.496-10l-68,85H144v16h88.952
			l-60.152,75.2l-2.4,2.4l0.272,0.272l-7.888,9.856c-1.168-1.4-2.4-2.768-3.696-4.072l-9.376-9.368
			c-3.124-3.124-8.19-3.124-11.314,0c-0.709,0.709-1.278,1.545-1.678,2.464l-18.84,43.248l-27.48,27.44
			c-11.334,11.219-13.674,28.671-5.696,42.48L43.56,319.948c-3.676,2.451-4.669,7.418-2.218,11.094
			c0.332,0.498,0.719,0.958,1.154,1.37l27.648,26.192H16v16h71.032l92.896,88H0v16h480v-16H363.68z M182,191.916l14.688,14.688
			l-10.344,10.344l11.312,11.312L208,217.916l12.688,12.688l-10.344,10.344l11.312,11.312L232,241.916l11.2,11.2l-14.624,17.144
			L212,268.812c-20.612-3.041-35.911-20.685-36-41.52c0.009-7.663-1.5-15.251-4.44-22.328L182,191.916z M328,462.604H203.2
			l-20.472-19.4l6.944-6.944l-11.312-11.312l-7.248,7.248l-13.032-12.344l7.592-7.592l-11.312-11.312l-7.904,7.896L133.432,396.5
			l8.24-8.24l-11.312-11.312l-8.552,8.552L108.8,373.148l8.888-8.888l-11.312-11.312l-9.2,9.2L84.12,349.804l9.536-9.544
			l-11.312-11.312l-9.848,9.848L60.8,327.692L95,304.9l123.36,123.36c1.39,1.393,3.244,2.224,5.208,2.336l135.56,7.528
			C355.633,452.482,342.777,462.592,328,462.604z M360,422.148l-51.744-2.872l-80.752-4.488l-125.792-125.84
			c-7.61-7.623-7.61-19.969,0-27.592l28.552-28.544c0.712-0.707,1.282-1.543,1.68-2.464l14.704-33.784l1.072,1.064
			c7.889,7.852,12.311,18.533,12.28,29.664c0.165,28.932,21.519,53.368,50.168,57.408l16.848,1.496l3.544,6.536l-28.216,28.216
			l11.312,11.312l24.864-24.856l8.92,16.456l-21.096,21.096l11.312,11.312l17.736-17.736l8.928,16.448l-13.976,13.976l11.312,11.312
			l10.952-10.952c0.885,0.93,1.983,1.63,3.2,2.04l66.2,19.832c10.635,3.224,17.93,12.999,17.992,24.112V422.148z"/>
	</g>
</g>
<g>
	<g>
		<rect x="112" y="86.604" width="16" height="16"/>
	</g>
</g>
<g>
	<g>
		<rect x="88" y="118.604" width="80" height="16"/>
	</g>
</g>
<g>
	<g>
		<rect x="56" y="118.604" width="16" height="16"/>
	</g>
</g>
<g>
	<g>
		<rect x="48" y="214.604" width="32" height="16"/>
	</g>
</g>
<g>
	<g>
		<rect x="16" y="214.604" width="16" height="16"/>
	</g>
</g>
<g>
	<g>
		<rect x="72" y="406.604" width="32" height="16"/>
	</g>
</g>
<g>
	<g>
		<rect x="40" y="406.604" width="16" height="16"/>
	</g>
</g>
<g>
</g>
<g>
</g>
<g>
</g>
<g>
</g>
<g>
</g>
<g>
</g>
<g>
</g>
<g>
</g>
<g>
</g>
<g>
</g>
<g>
</g>
<g>
</g>
<g>
</g>
<g>
</g>
<g>
</g>
</svg>
