<svg id="Capa_1" enable-background="new 0 0 512 512" height="512" viewBox="0 0 512 512" width="512" xmlns="http://www.w3.org/2000/svg"><g><path d="m383.742 138.468v-91.404h.517c8.556 0 15.516-6.96 15.516-15.516v-16.032c-.001-8.556-6.961-15.516-15.517-15.516h-256.516c-8.556 0-15.516 6.96-15.516 15.516v16.032c0 8.556 6.96 15.516 15.516 15.516h.517v91.404c0 30.615 16.308 59.418 42.56 75.169l70.604 42.363-70.605 42.363c-26.251 15.751-42.56 44.554-42.56 75.169v91.404h-.517c-8.556 0-15.516 6.96-15.516 15.516v16.032c0 8.556 6.96 15.516 15.516 15.516h256.517c8.556 0 15.516-6.96 15.516-15.516v-16.032c0-8.556-6.96-15.516-15.516-15.516h-.517v-91.404c0-30.615-16.308-59.418-42.56-75.169l-70.604-42.363 70.605-42.363c26.252-15.751 42.56-44.554 42.56-75.169zm-240.484-91.404h168.852c4.142 0 7.5-3.358 7.5-7.5s-3.358-7.5-7.5-7.5h-184.368c-.285 0-.516-.231-.516-.516v-16.032c0-.285.231-.516.516-.516h256.517c.285 0 .516.231.516.516v16.032c0 .285-.231.516-.516.516h-40.081c-4.142 0-7.5 3.358-7.5 7.5s3.358 7.5 7.5 7.5h24.564v91.404c0 13.526-3.842 26.625-10.724 37.887h-204.035c-6.882-11.262-10.724-24.36-10.724-37.887v-91.404zm35.278 264.161 69.964-41.979v85.885l-105.242 42.097v-23.697c0-25.376 13.518-49.25 35.278-62.306zm21.354 153.711c-4.142 0-7.5 3.358-7.5 7.5s3.358 7.5 7.5 7.5h184.369c.285 0 .516.231.516.516v16.032c0 .285-.231.516-.516.516h-256.517c-.285 0-.516-.231-.516-.516v-16.032c0-.285.231-.516.516-.516h40.081c4.142 0 7.5-3.358 7.5-7.5s-3.358-7.5-7.5-7.5h-24.564v-51.551l112.741-45.098 112.742 45.097v51.551h-168.852zm168.852-91.404v23.697l-105.242-42.097v-85.885l69.964 41.979c21.76 13.055 35.278 36.929 35.278 62.306zm-112.742-126.279-77.464-46.479c-4.503-2.702-8.648-5.874-12.398-9.42h179.725c-3.751 3.546-7.895 6.718-12.398 9.42z"/></g></svg>