<?xml version="1.0" encoding="iso-8859-1"?>
<!-- Generator: Adobe Illustrator 19.0.0, SVG Export Plug-In . SVG Version: 6.00 Build 0)  -->
<svg xmlns="http://www.w3.org/2000/svg" xmlns:xlink="http://www.w3.org/1999/xlink" version="1.1" id="Layer_1" x="0px" y="0px" viewBox="0 0 512 512" style="enable-background:new 0 0 512 512;" xml:space="preserve" width="512" height="512">
<g id="XMLID_556_">
	<g id="XMLID_1528_">
		<g id="XMLID_2495_">
			<circle id="XMLID_2510_" style="fill:#FED2A4;" cx="135.989" cy="326" r="40"/>
			<path id="XMLID_2509_" style="fill:#FF7480;" d="M493.989,366h-318v-41.667c0-21.171,17.162-38.333,38.333-38.333h199.667     C458.172,286,493.989,321.817,493.989,366L493.989,366z"/>
			<polygon id="XMLID_2493_" style="fill:#FFBE52;" points="64,366 64,230 10,230 10,502 502,502 502,366    "/>
		</g>
		<g id="XMLID_1511_">
			<circle id="XMLID_1532_" style="fill:#93E7F8;" cx="389" cy="123" r="113"/>
		</g>
	</g>
	<g id="XMLID_538_">
		<g id="XMLID_539_">
			<g id="XMLID_540_">
				<path id="XMLID_552_" d="M503.444,356.116C498.506,311.124,460.275,276,413.989,276h-62.993c-5.522,0-10,4.478-10,10      s4.478,10,10,10h62.993c35.203,0,64.421,26.122,69.288,60H185.989v-31.667c0-15.623,12.71-28.333,28.333-28.333h56.674      c5.522,0,10-4.478,10-10s-4.478-10-10-10h-56.674c-15.85,0-29.941,7.67-38.76,19.491C166.41,283.648,152.08,276,135.989,276      c-27.57,0-50,22.43-50,50c0,11.247,3.735,21.637,10.027,30H74V230c0-5.523-4.478-10-10-10H10c-5.522,0-10,4.477-10,10v272      c0,5.522,4.478,10,10,10h492c5.522,0,10-4.478,10-10V366C512,360.969,508.281,356.818,503.444,356.116z M105.989,326      c0-16.542,13.458-30,30-30s30,13.458,30,30s-13.458,30-30,30S105.989,342.542,105.989,326z M492,492H20v-76h150.168      c5.522,0,10-4.478,10-10s-4.478-10-10-10H20V240h34v126c0,5.522,4.478,10,10,10h111.989H492V492z"/>
				<path id="XMLID_541_" d="M303.92,278.93c-1.86,1.86-2.92,4.44-2.92,7.07s1.06,5.21,2.92,7.069c1.87,1.86,4.439,2.931,7.08,2.931      c2.63,0,5.21-1.07,7.069-2.931C319.93,291.21,321,288.63,321,286s-1.07-5.21-2.931-7.07c-1.859-1.86-4.439-2.93-7.069-2.93      C308.359,276,305.79,277.069,303.92,278.93z"/>
				<path id="XMLID_542_" d="M210.17,416c2.63,0,5.2-1.07,7.07-2.931c1.859-1.859,2.93-4.439,2.93-7.069s-1.07-5.21-2.93-7.07      c-1.86-1.86-4.44-2.93-7.07-2.93c-2.64,0-5.21,1.069-7.07,2.93c-1.87,1.86-2.93,4.44-2.93,7.07s1.06,5.21,2.93,7.069      C204.96,414.93,207.54,416,210.17,416z"/>
				<path id="XMLID_543_" d="M172.013,101.468h20.209l-27.28,27.28c-2.859,2.86-3.715,7.161-2.168,10.897      c1.548,3.737,5.194,6.173,9.239,6.173h44.351c5.522,0,10-4.477,10-10s-4.478-10-10-10h-20.209l27.28-27.28      c2.859-2.86,3.715-7.161,2.168-10.897c-1.548-3.737-5.194-6.173-9.239-6.173h-44.351c-5.522,0-10,4.477-10,10      S166.49,101.468,172.013,101.468z"/>
				<path id="XMLID_544_" d="M140.333,208.321h7.537l-14.608,14.608c-2.859,2.86-3.715,7.161-2.168,10.898      c1.548,3.737,5.194,6.173,9.239,6.173h31.68c5.522,0,10-4.477,10-10s-4.478-10-10-10h-7.537l14.608-14.608      c2.859-2.86,3.715-7.161,2.168-10.898c-1.548-3.737-5.194-6.173-9.239-6.173h-31.68c-5.522,0-10,4.477-10,10      S134.811,208.321,140.333,208.321z"/>
				<path id="XMLID_547_" d="M389,246c67.822,0,123-55.178,123-123S456.822,0,389,0S266,55.178,266,123S321.178,246,389,246z       M389,20c56.794,0,103,46.206,103,103s-46.206,103-103,103s-103-46.206-103-103S332.206,20,389,20z"/>
				<path id="XMLID_548_" d="M462.317,133.092h6.955c5.522,0,10-4.477,10-10s-4.478-10-10-10h-6.955c-5.522,0-10,4.477-10,10      S456.795,133.092,462.317,133.092z"/>
				<path id="XMLID_549_" d="M325.683,122.908c0-5.523-4.478-10-10-10h-6.955c-5.522,0-10,4.477-10,10s4.478,10,10,10h6.955      C321.205,132.908,325.683,128.431,325.683,122.908z"/>
				<path id="XMLID_550_" d="M388.908,186.317c-5.522,0-10,4.477-10,10v6.956c0,5.523,4.478,10,10,10s10-4.477,10-10v-6.956      C398.908,190.794,394.431,186.317,388.908,186.317z"/>
				<path id="XMLID_551_" d="M358.333,133H389c5.518,0,9.993-4.47,10-9.987l0.092-73c0.007-5.523-4.465-10.006-9.987-10.013      c-0.005,0-0.009,0-0.013,0c-5.517,0-9.993,4.469-10,9.987L379.013,113h-20.68c-5.522,0-10,4.477-10,10S352.811,133,358.333,133z      "/>
			</g>
		</g>
	</g>
</g>















</svg>
