<svg id="Capa_1" enable-background="new 0 0 511.999 511.999" height="512" viewBox="0 0 511.999 511.999" width="512" xmlns="http://www.w3.org/2000/svg"><g><path d="m46.918 302.917c0 115.288 93.794 209.082 209.082 209.082s209.081-93.793 209.081-209.082c0-105.736-78.899-193.378-180.913-207.177v-39.404h14.184c9.088 0 16.481-7.394 16.481-16.482v-23.372c0-9.088-7.394-16.482-16.481-16.482h-24.852c-4.143 0-7.5 3.358-7.5 7.5s3.357 7.5 7.5 7.5h24.852c.816 0 1.481.665 1.481 1.482v23.373c0 .817-.665 1.482-1.481 1.482-6.649 0-70.279 0-84.703 0-.817 0-1.482-.665-1.482-1.482v-23.373c0-.817.665-1.482 1.482-1.482h24.851c4.143 0 7.5-3.358 7.5-7.5s-3.357-7.5-7.5-7.5h-24.852c-9.089 0-16.482 7.394-16.482 16.482v23.373c0 9.088 7.394 16.482 16.482 16.482h14.183v39.403c-18.566 2.511-36.37 7.457-53.069 14.524l-16.712-28.946c-4.358-7.547-14.044-10.144-21.593-5.786l-21.41 12.361c-7.566 4.368-10.155 14.026-5.786 21.593l17.058 29.545c-48.339 38.33-79.401 97.546-79.401 163.886zm195.913-246.581h26.337v37.909c-8.451-.524-17.545-.546-26.337 0zm-120.58 45.65c-.223-.385-.096-.876.296-1.103l21.409-12.361c.386-.223.882-.089 1.104.295l16.031 27.768c-7.819 3.991-15.399 8.482-22.659 13.425zm120.554 7.308c8.799-.588 17.703-.586 26.501.007 100.833 6.861 180.775 91.073 180.775 193.617 0 107.017-87.064 194.082-194.081 194.082-107.018 0-194.082-87.064-194.082-194.082 0-102.582 80-186.817 180.887-193.624z"/><path d="m255.999 471.999c93.232 0 169.082-75.85 169.082-169.081 0-93.415-76.063-169.081-169.081-169.081h-.001c-93.231 0-169.081 75.85-169.081 169.081s75.85 169.081 169.081 169.081zm-137.011-239.525 5.958 3.44c3.583 2.07 8.173.845 10.245-2.745 2.071-3.587.842-8.174-2.745-10.245l-5.936-3.427c11.911-18.425 27.644-34.157 46.068-46.068l3.427 5.935c2.072 3.587 6.657 4.817 10.245 2.745 3.587-2.071 4.816-6.658 2.745-10.245l-3.439-5.957c19.03-9.824 40.356-15.797 62.943-16.885v51.028c0 4.142 3.357 7.5 7.5 7.5s7.5-3.358 7.5-7.5c0-10.298 0-40.838 0-51.028 21.686 1.019 43.262 6.744 62.94 16.89l-3.437 5.952c-2.071 3.587-.842 8.174 2.745 10.245 3.592 2.073 8.177.838 10.245-2.745l3.423-5.93c17.945 11.593 33.801 27.11 46.066 46.066l-5.93 3.424c-3.587 2.071-4.816 6.658-2.745 10.245 2.074 3.592 6.663 4.814 10.245 2.745l5.952-3.437c10.519 20.367 15.954 42.155 16.89 62.94-6.738 0-12.199 0-19.055 0-2.952-8.523-11.384-15-21.215-15h-79.441c-6.198-9.411-15.837-15.754-26.685-17.754v-27.613c0-4.142-3.357-7.5-7.5-7.5s-7.5 3.358-7.5 7.5v27.631c-11.114 2.067-20.662 8.633-26.675 17.736h-22.699c-12.406 0-22.5 10.093-22.5 22.5s10.094 22.5 22.5 22.5h22.698c7.331 11.097 19.909 18.438 34.176 18.438s26.845-7.34 34.176-18.438h79.45c9.777 0 18.114-6.271 21.21-15h19.06c-1.088 22.587-7.062 43.913-16.885 62.943l-5.957-3.439c-3.588-2.073-8.175-.842-10.245 2.745-2.071 3.587-.842 8.174 2.745 10.245l5.935 3.426c-11.911 18.425-27.644 34.157-46.068 46.068l-3.426-5.934c-2.071-3.587-6.657-4.816-10.245-2.746-3.587 2.071-4.816 6.658-2.745 10.245l3.439 5.957c-19.03 9.824-40.356 15.798-62.943 16.886v-6.898c0-4.142-3.357-7.5-7.5-7.5s-7.5 3.358-7.5 7.5v6.898c-22.587-1.088-43.913-7.061-62.943-16.885l3.439-5.957c2.071-3.587.842-8.174-2.745-10.245-3.588-2.073-8.175-.843-10.245 2.745l-3.427 5.935c-18.425-11.911-34.157-27.643-46.068-46.068l5.936-3.427c3.587-2.071 4.816-6.658 2.745-10.245-2.07-3.588-6.659-4.817-10.245-2.745l-5.958 3.44c-9.824-19.03-15.798-40.356-16.886-62.943h6.899c4.143 0 7.5-3.358 7.5-7.5s-3.357-7.5-7.5-7.5h-6.899c1.09-22.588 7.064-43.914 16.887-62.944zm177.263 62.943h73.375c4.136 0 7.5 3.364 7.5 7.5s-3.364 7.5-7.5 7.5h-73.375c.906-4.857.893-10.2 0-15zm-17.1 19.173c-4.28 8.453-13.047 14.265-23.151 14.265-14.439 0-25.938-11.803-25.938-25.938 0-14.222 11.574-25.937 25.938-25.937 18.562 0 31.793 19.248 23.151 37.61zm-63.403-4.173h-16.622c-4.136 0-7.5-3.364-7.5-7.5s3.364-7.5 7.5-7.5h16.622c-.932 5.016-.869 10.335 0 15z"/></g></svg>