<?xml version="1.0" encoding="iso-8859-1"?>
<!-- Generator: Adobe Illustrator 21.0.0, SVG Export Plug-In . SVG Version: 6.00 Build 0)  -->
<svg xmlns="http://www.w3.org/2000/svg" xmlns:xlink="http://www.w3.org/1999/xlink" version="1.1" id="Capa_1" x="0px" y="0px" viewBox="0 0 512 512" style="enable-background:new 0 0 512 512;" xml:space="preserve" width="512" height="512">
<g>
	<path style="fill:#579FFF;" d="M417.068,47.732v108.672c-0.19-0.02-0.389-0.02-0.589-0.02c-15.021,0-27.195,12.175-27.195,27.185   v135.887c0,0,0,69.002,9.748,124.102c-5.733,3.516-12.474,5.543-19.695,5.543H57.215V10h322.121   C400.169,10,417.068,26.899,417.068,47.732z"/>
	<polygon style="fill:#F46370;" points="102.859,449.1 102.859,501.376 129.317,483.641 155.469,501.376 155.469,449.1  "/>
	<rect x="137.804" y="81.096" style="fill:#E8E7E9;" width="203.899" height="116.543"/>
	<rect x="389.285" y="185.367" style="fill:#ADAAAF;" width="54.38" height="134.09"/>
	<path style="fill:#ADAAAF;" d="M426.309,319.458H406.64h-17.355c0,0,0,110.255,19.669,163.309h15.041   c19.669-53.054,19.669-163.309,19.669-163.309H426.309z"/>
	<path style="fill:#ADAAAF;" d="M416.475,156.383L416.475,156.383c-15.017,0-27.19,12.173-27.19,27.19v1.794h54.38v-1.794   C443.665,168.556,431.491,156.383,416.475,156.383z"/>
	<path style="fill:#231F20;" d="M341.703,71.096H137.804c-5.523,0-10,4.477-10,10V197.64c0,5.523,4.477,10,10,10h17.351   c5.523,0,10-4.477,10-10s-4.477-10-10-10h-7.351V91.096h183.899v96.543h-94.23c-5.523,0-10,4.477-10,10s4.477,10,10,10h104.23   c5.523,0,10-4.477,10-10V81.096C351.703,75.573,347.226,71.096,341.703,71.096z"/>
	<path style="fill:#231F20;" d="M177.762,129.915h123.982c5.523,0,10-4.477,10-10s-4.477-10-10-10H177.762c-5.523,0-10,4.477-10,10   S172.239,129.915,177.762,129.915z"/>
	<path style="fill:#231F20;" d="M311.744,159.578c0-5.523-4.477-10-10-10H177.762c-5.523,0-10,4.477-10,10s4.477,10,10,10h123.982   C307.267,169.578,311.744,165.101,311.744,159.578z"/>
	<path style="fill:#231F20;" d="M453.665,191.949v-6.582v-1.794c0-16.827-11.236-31.071-26.597-35.644V47.732   C427.068,21.413,405.655,0,379.336,0H57.215c-5.523,0-10,4.477-10,10v67.651H36.722c-5.523,0-10,4.477-10,10s4.477,10,10,10h10.493   v48.732H36.722c-5.523,0-10,4.477-10,10s4.477,10,10,10h10.493v48.732H36.722c-5.523,0-10,4.477-10,10s4.477,10,10,10h10.493   v48.732H36.722c-5.523,0-10,4.477-10,10s4.477,10,10,10h10.493v48.732H36.722c-5.523,0-10,4.477-10,10s4.477,10,10,10h10.493   v76.522c0,5.523,4.477,10,10,10h35.644v42.273c0,3.692,2.035,7.084,5.292,8.823c1.476,0.787,3.093,1.177,4.707,1.177   c1.948,0,3.891-0.569,5.568-1.693l20.857-13.981l20.572,13.951c3.064,2.079,7.027,2.293,10.296,0.559   c3.271-1.734,5.316-5.133,5.316-8.835v-42.273h213.867c4.148,0,8.25-0.544,12.213-1.591c2.242,10.495,4.893,20.273,8.029,28.732   c1.158,3.124,3.769,5.406,6.897,6.207V502c0,5.523,4.477,10,10,10s10-4.477,10-10v-9.55c3.128-0.801,5.739-3.083,6.897-6.207   c20.062-54.114,20.292-162.21,20.292-166.786V213.188c6.895,3.615,11.613,10.84,11.613,19.151v87.359c0,5.523,4.477,10,10,10   s10-4.477,10-10v-87.359C485.278,212.841,471.795,196.439,453.665,191.949z M399.285,195.367h34.38v114.09h-34.38V195.367z    M431.576,175.367h-30.199c0.236-0.432,0.493-0.852,0.765-1.26c0.05-0.076,0.102-0.15,0.154-0.225   c0.593-0.863,1.258-1.673,1.996-2.413c0.004-0.005,0.009-0.009,0.014-0.013c2.705-2.707,6.312-4.523,10.344-4.965   c0.025-0.003,0.05-0.005,0.075-0.008c0.565-0.059,1.138-0.094,1.719-0.098c0.001,0,0.003,0,0.004,0   c0.031,0.002,0.062,0,0.092,0.001C423.02,166.409,428.669,170.037,431.576,175.367z M145.469,482.512l-10.54-7.147   c-3.373-2.288-7.796-2.299-11.18-0.03l-10.89,7.3v-23.532h32.61V482.512z M379.336,439.102H155.508   c-0.013,0-0.026-0.002-0.039-0.002h-52.61c-0.013,0-0.026,0.002-0.039,0.002H67.215V372.58h13.3c5.523,0,10-4.477,10-10   s-4.477-10-10-10h-13.3v-48.732h13.3c5.523,0,10-4.477,10-10s-4.477-10-10-10h-13.3v-48.732h13.3c5.523,0,10-4.477,10-10   s-4.477-10-10-10h-13.3v-48.732h13.3c5.523,0,10-4.477,10-10s-4.477-10-10-10h-13.3V97.651h13.3c5.523,0,10-4.477,10-10   s-4.477-10-10-10h-13.3V20h312.121c15.292,0,27.732,12.44,27.732,27.732v99.857c-0.52,0.136-1.035,0.284-1.545,0.442   c-11.778,3.634-21.244,13.216-24.726,25.037c-1.001,3.399-1.514,6.958-1.514,10.501v135.887c0,0.407,0.003,2.144,0.035,4.969   c0,0.035,0.001,0.07,0.001,0.105c0.002,0.191,0.005,0.387,0.007,0.588c0.205,16.876,1.42,67.621,8.578,112.632   C385.156,438.642,382.266,439.102,379.336,439.102z M416.842,472.767h-0.735c-2.85-9.079-5.216-19.528-7.183-30.611   c-0.016-0.113-0.027-0.226-0.047-0.339c-2.75-15.546-4.711-32.316-6.111-48.308c-2.318-26.548-3.095-50.961-3.353-64.052h34.122   C433.008,356.125,430.338,429.78,416.842,472.767z"/>
	<path style="fill:#231F20;" d="M207.04,193.82c-1.615-3.939-5.714-6.446-9.95-6.151c-4.151,0.289-7.752,3.238-8.895,7.228   c-1.146,3.999,0.382,8.452,3.783,10.868c3.37,2.394,7.926,2.463,11.371,0.185C207.273,203.355,208.848,198.159,207.04,193.82z"/>
</g>















</svg>
