<?xml version="1.0"?>
<svg xmlns="http://www.w3.org/2000/svg" width="512" height="512" viewBox="0 0 512 512">
<g>
<path d="M388,8H40a8,8,0,0,0-8,8V40H24a8,8,0,0,0-8,8V80a8,8,0,0,0,8,8h8v16H24a8,8,0,0,0-8,8v32a8,8,0,0,0,8,8h8v16H24a8,8,0,0,0-8,8v32a8,8,0,0,0,8,8h8v16H24a8,8,0,0,0-8,8v32a8,8,0,0,0,8,8h8v16H24a8,8,0,0,0-8,8v32a8,8,0,0,0,8,8h8v16H24a8,8,0,0,0-8,8v32a8,8,0,0,0,8,8h8v16H24a8,8,0,0,0-8,8v32a8,8,0,0,0,8,8h8v24a8,8,0,0,0,8,8H388a28.031,28.031,0,0,0,28-28V36A28.031,28.031,0,0,0,388,8ZM32,56H64V72H32Zm0,64H64v16H32Zm0,64H64v16H32Zm0,64H64v16H32Zm0,64H64v16H32Zm0,64H64v16H32Zm0,80V440H64v16Zm304,20a12.01,12.01,0,0,1-12,12H48V472H72a8,8,0,0,0,8-8V432a8,8,0,0,0-8-8H48V408H72a8,8,0,0,0,8-8V368a8,8,0,0,0-8-8H48V344H72a8,8,0,0,0,8-8V304a8,8,0,0,0-8-8H48V280H72a8,8,0,0,0,8-8V240a8,8,0,0,0-8-8H48V216H72a8,8,0,0,0,8-8V176a8,8,0,0,0-8-8H48V152H72a8,8,0,0,0,8-8V112a8,8,0,0,0-8-8H48V88H72a8,8,0,0,0,8-8V48a8,8,0,0,0-8-8H48V24H324a12.01,12.01,0,0,1,12,12Zm64,0a12.01,12.01,0,0,1-12,12H349.29A27.75,27.75,0,0,0,352,476V36a27.75,27.75,0,0,0-2.71-12H388a12.01,12.01,0,0,1,12,12Z"/><path d="M280,456H208a8,8,0,0,0,0,16h72a8,8,0,0,0,0-16Z"/><path d="M312,456h-8a8,8,0,0,0,0,16h8a8,8,0,0,0,0-16Z"/><path d="M312,432H208a8,8,0,0,0,0,16H312a8,8,0,0,0,0-16Z"/><path d="M184,40H104a8,8,0,0,0-8,8v80a8,8,0,0,0,8,8h80a8,8,0,0,0,8-8V48A8,8,0,0,0,184,40Zm-8,80H112V56h64Z"/><path d="M376,48a8,8,0,0,0-8,8V416a8,8,0,0,0,16,0V56A8,8,0,0,0,376,48Z"/><path d="M376,432a8,8,0,0,0-8,8v8a8,8,0,0,0,16,0v-8A8,8,0,0,0,376,432Z"/><path d="M468,8h-8a28.031,28.031,0,0,0-28,28V440c0,.05.01.1.01.15,0,.11.01.21.01.32.02.21.03.41.06.62.02.09.03.19.05.29q.06.345.15.69c.02.06.03.13.05.19a7.276,7.276,0,0,0,.32.89l24,56a7.994,7.994,0,0,0,14.7,0l24-56a7.276,7.276,0,0,0,.32-.89c.02-.06.03-.13.05-.2.06-.22.11-.45.15-.68.02-.1.03-.2.05-.3.03-.2.04-.4.06-.61,0-.11.01-.21.01-.32,0-.05.01-.1.01-.15V36A28.031,28.031,0,0,0,468,8Zm-4,467.69L452.13,448h23.74ZM480,432h-8V280a8,8,0,0,0-16,0V432h-8V96h32Zm0-352H448V72h32Zm0-24H448V36a12.01,12.01,0,0,1,12-12h8a12.01,12.01,0,0,1,12,12Z"/><path d="M472,248a8,8,0,0,0-16,0v8a8,8,0,0,0,16,0Z"/></g></svg>
