<?xml version="1.0" encoding="iso-8859-1"?>
<!-- Generator: Adobe Illustrator 19.0.0, SVG Export Plug-In . SVG Version: 6.00 Build 0)  -->
<svg version="1.1" id="Capa_1" xmlns="http://www.w3.org/2000/svg" xmlns:xlink="http://www.w3.org/1999/xlink" x="0px" y="0px"
	 viewBox="0 0 512.001 512.001" style="enable-background:new 0 0 512.001 512.001;" xml:space="preserve">
<path style="fill:#FEE9AB;" d="M110.933,8.534h392.533l0,0V483.2c0,11.196-9.071,20.267-20.267,20.267H110.933l0,0V8.534
	L110.933,8.534z"/>
<g>
	<path style="fill:#FFF7D2;" d="M476.16,502.614c1.203,0.188,2.398,0.401,3.627,0.521
		C478.549,503.015,477.355,502.802,476.16,502.614z"/>
	<path style="fill:#FFF7D2;" d="M469.478,501.266c1.161,0.299,2.304,0.632,3.482,0.853
		C471.782,501.897,470.639,501.564,469.478,501.266z"/>
	<path style="fill:#FFF7D2;" d="M438.255,483.593c-0.853-0.853-1.604-1.707-2.398-2.611
		C436.651,481.861,437.419,482.765,438.255,483.593z"/>
	<path style="fill:#FFF7D2;" d="M463.036,499.277c1.109,0.41,2.21,0.853,3.345,1.195
		C465.246,500.122,464.145,499.687,463.036,499.277z"/>
	<path style="fill:#FFF7D2;" d="M431.659,475.879c0.717,0.964,1.399,1.954,2.167,2.876
		C433.058,477.867,432.375,476.843,431.659,475.879z"/>
	<path style="fill:#FFF7D2;" d="M418.807,444.288c0.213,1.587,0.41,3.174,0.725,4.719
		C419.217,447.463,418.987,445.876,418.807,444.288z"/>
	<path style="fill:#FFF7D2;" d="M418.133,435.2c0,2.338,0.119,4.676,0.358,7.006C418.253,439.877,418.133,437.539,418.133,435.2z"/>
	<path style="fill:#FFF7D2;" d="M420.233,451.73c0.316,1.289,0.597,2.56,0.99,3.84C420.83,454.315,420.548,453.018,420.233,451.73z"
		/>
	<path style="fill:#FFF7D2;" d="M424.789,464.461c0.538,1.135,1.041,2.287,1.638,3.413
		C425.813,466.774,425.327,465.596,424.789,464.461z"/>
	<path style="fill:#FFF7D2;" d="M422.195,458.24c0.435,1.212,0.853,2.449,1.34,3.635C423.031,460.681,422.63,459.444,422.195,458.24
		z"/>
	<path style="fill:#FFF7D2;" d="M456.892,496.692c1.058,0.512,2.099,1.05,3.191,1.51
		C458.991,497.741,457.95,497.204,456.892,496.692z"/>
	<path style="fill:#FFF7D2;" d="M427.981,470.4c0.623,1.033,1.212,2.091,1.886,3.081C429.227,472.491,428.604,471.433,427.981,470.4
		z"/>
	<path style="fill:#FFF7D2;" d="M440.525,485.658c0.853,0.785,1.707,1.604,2.611,2.347
		C442.232,487.254,441.387,486.443,440.525,485.658z"/>
	<path style="fill:#FFF7D2;" d="M445.594,489.814c0.939,0.708,1.852,1.434,2.825,2.091
		C447.445,491.273,446.532,490.548,445.594,489.814z"/>
	<path style="fill:#FFF7D2;" d="M451.089,493.551c0.99,0.606,1.963,1.237,2.987,1.783
		C453.052,494.789,452.079,494.157,451.089,493.551z"/>
	<path style="fill:#FFF7D2;" d="M440.525,485.658c-0.759-0.691-1.545-1.34-2.27-2.065
		C438.98,484.318,439.765,484.967,440.525,485.658z"/>
</g>
<path style="fill:#FCCA75;" d="M476.16,502.614c-1.067-0.154-2.142-0.273-3.191-0.486c-1.05-0.213-2.321-0.563-3.482-0.853
	s-2.082-0.478-3.098-0.794c-1.015-0.316-2.236-0.785-3.345-1.195c-1.109-0.41-1.988-0.674-2.953-1.075
	c-0.964-0.401-2.133-0.998-3.191-1.51c-1.058-0.512-1.903-0.853-2.816-1.357s-1.997-1.178-2.987-1.783
	c-0.99-0.606-1.809-1.041-2.671-1.621c-0.862-0.58-1.886-1.382-2.825-2.091c-0.939-0.708-1.707-1.186-2.458-1.835
	s-1.707-1.562-2.611-2.347s-1.545-1.34-2.27-2.065c-0.725-0.725-1.604-1.707-2.398-2.611c-0.674-0.742-1.391-1.459-2.031-2.227
	c-0.768-0.922-1.451-1.911-2.167-2.876c-0.589-0.802-1.229-1.57-1.792-2.398c-0.674-0.99-1.263-2.048-1.886-3.081
	c-0.512-0.853-1.075-1.707-1.553-2.56c-0.597-1.101-1.101-2.253-1.638-3.413c-0.418-0.853-0.853-1.707-1.254-2.56
	c-0.503-1.186-0.905-2.423-1.34-3.635c-0.316-0.853-0.691-1.758-0.973-2.662c-0.393-1.254-0.674-2.56-0.99-3.84
	c-0.23-0.905-0.512-1.801-0.7-2.722c-0.316-1.545-0.512-3.132-0.725-4.719c-0.094-0.691-0.247-1.374-0.316-2.082
	c-0.247-2.33-0.367-4.668-0.367-7.014v-17.067H42.667V435.2c0,37.7,30.566,68.267,68.267,68.267H486.4
	c-1.126,0-2.219-0.111-3.328-0.171c-1.109-0.06-2.21-0.06-3.294-0.162C478.549,503.015,477.355,502.802,476.16,502.614z"/>
<g>
	<path style="fill:#FFF7D2;" d="M483.072,503.296c-1.101-0.051-2.21-0.06-3.294-0.162
		C480.862,503.237,481.971,503.245,483.072,503.296z"/>
	<path style="fill:#FFF7D2;" d="M472.96,502.127c1.05,0.213,2.125,0.333,3.191,0.486C475.085,502.46,474.01,502.341,472.96,502.127z
		"/>
	<path style="fill:#FFF7D2;" d="M421.222,455.57c0.282,0.905,0.657,1.766,0.973,2.662
		C421.879,457.336,421.547,456.474,421.222,455.57z"/>
	<path style="fill:#FFF7D2;" d="M419.533,449.007c0.188,0.922,0.469,1.818,0.7,2.722
		C420.002,450.825,419.721,449.929,419.533,449.007z"/>
	<path style="fill:#FFF7D2;" d="M426.428,467.849c0.478,0.853,1.041,1.707,1.553,2.56
		C427.469,469.547,426.906,468.719,426.428,467.849z"/>
	<path style="fill:#FFF7D2;" d="M418.492,442.206c0.068,0.708,0.222,1.391,0.316,2.082
		C418.714,443.597,418.56,442.88,418.492,442.206z"/>
	<path style="fill:#FFF7D2;" d="M429.867,473.481c0.563,0.853,1.203,1.596,1.792,2.398
		C431.07,475.077,430.43,474.309,429.867,473.481z"/>
	<path style="fill:#FFF7D2;" d="M448.418,491.93c0.853,0.58,1.775,1.084,2.671,1.621C450.193,493.014,449.28,492.51,448.418,491.93z
		"/>
	<path style="fill:#FFF7D2;" d="M443.136,488.005c0.785,0.649,1.638,1.229,2.458,1.835
		C444.774,489.234,443.921,488.653,443.136,488.005z"/>
	<path style="fill:#FFF7D2;" d="M433.826,478.72c0.64,0.768,1.357,1.485,2.031,2.227C435.2,480.239,434.466,479.523,433.826,478.72z
		"/>
	<path style="fill:#FFF7D2;" d="M460.083,498.202c0.964,0.401,1.963,0.717,2.953,1.075
		C462.046,498.919,461.047,498.603,460.083,498.202z"/>
	<path style="fill:#FFF7D2;" d="M466.381,500.472c1.015,0.316,2.065,0.529,3.098,0.794
		C468.48,501.001,467.396,500.788,466.381,500.472z"/>
	<path style="fill:#FFF7D2;" d="M423.535,461.867c0.375,0.853,0.853,1.707,1.254,2.56
		C424.371,463.591,423.91,462.755,423.535,461.867z"/>
	<path style="fill:#FFF7D2;" d="M454.076,495.335c0.913,0.495,1.877,0.905,2.816,1.357
		C455.953,496.239,454.989,495.83,454.076,495.335z"/>
</g>
<polygon style="fill:#FCCA75;" points="273.067,162.134 59.733,162.134 59.733,230.4 273.067,230.4 264.533,196.267 "/>
<polygon style="fill:#FFF7D2;" points="273.067,230.4 281.6,230.4 315.733,196.267 281.6,162.134 273.067,162.134 264.533,196.267 
	"/>
<path style="fill:#FEE9AB;" d="M42.667,230.4h17.067v-68.267H42.667c-18.85,0-34.133,15.283-34.133,34.133
	S23.817,230.4,42.667,230.4z"/>
<path style="fill:#FCCA75;" d="M196.267,358.4h256v-256L196.267,358.4z M401.067,307.2h-81.195l81.195-81.195V307.2z"/>
<polygon style="fill:#FEE9AB;" points="401.067,226.006 319.872,307.2 401.067,307.2 "/>
<path d="M503.467,0h-384c-4.71,0-8.533,3.823-8.533,8.533v128H128V17.067h366.933V486.4c0.085,4.489-3.379,8.243-7.859,8.533
	c-0.734,0-1.468-0.06-2.202-0.077c-1.51-0.043-3.021-0.077-4.506-0.23c-0.128,0-0.247,0-0.375-0.051
	c-27.87-3.046-49.886-25.037-52.958-52.907c0-0.119-0.043-0.247-0.06-0.367c-0.205-2.031-0.307-4.062-0.307-6.101v-17.067
	c0-4.71-3.823-8.533-8.533-8.533H128V256h-17.067v153.6H42.667c-4.71,0-8.533,3.823-8.533,8.533V435.2
	c0.051,42.394,34.406,76.749,76.8,76.8h376.32c13.85-0.358,24.858-11.75,24.747-25.6V8.534C512,3.823,508.177,0,503.467,0z
	 M110.933,494.934C77.961,494.9,51.234,468.173,51.2,435.2v-8.533h358.4v8.533c0.009,2.816,0.171,5.623,0.486,8.422
	c0.077,0.742,0.222,1.459,0.324,2.193c0.282,2.065,0.623,4.122,1.075,6.144c0.154,0.708,0.35,1.408,0.529,2.116
	c0.521,2.057,1.109,4.079,1.792,6.076c0.196,0.572,0.401,1.135,0.614,1.707c0.777,2.116,1.655,4.181,2.62,6.221
	c0.205,0.418,0.393,0.853,0.597,1.237c1.067,2.159,2.244,4.267,3.524,6.306c0.171,0.273,0.324,0.555,0.495,0.853
	c1.391,2.176,2.893,4.284,4.497,6.315l0.273,0.367c1.86,2.338,3.857,4.574,5.973,6.682c1.835,1.818,3.746,3.524,5.717,5.12
	L110.933,494.934z"/>
<path d="M281.6,238.934c2.261,0,4.437-0.896,6.033-2.5l34.133-34.133c3.328-3.328,3.328-8.738,0-12.066l-34.133-34.133
	c-1.596-1.604-3.772-2.5-6.033-2.5H42.667C19.106,153.6,0,172.707,0,196.267s19.106,42.667,42.667,42.667H281.6z M257.877,187.734
	H85.333V204.8h172.544l4.267,17.067H68.267v-51.2h193.877L257.877,187.734z M303.667,196.267l-24.269,24.269l-6.067-24.269
	l6.067-24.269L303.667,196.267z M17.067,196.267c0-14.14,11.46-25.6,25.6-25.6H51.2v51.2h-8.533
	C28.527,221.867,17.067,210.407,17.067,196.267z"/>
<path d="M196.267,366.934h256c4.71,0,8.533-3.823,8.533-8.533v-256c0-4.71-3.823-8.533-8.533-8.533c-2.261,0-4.429,0.896-6.033,2.5
	l-256,256c-3.328,3.337-3.328,8.738,0,12.066C191.838,366.038,194.005,366.934,196.267,366.934z M443.733,123v22.067h-17.067v17.067
	h17.067V179.2h-17.067v17.067h17.067v17.067h-17.067V230.4h17.067v17.067h-17.067v17.067h17.067V281.6h-17.067v17.067h17.067v17.067
	h-17.067V332.8h17.067v17.067h-17.067V332.8H409.6v17.067h-17.067V332.8h-17.067v17.067H358.4V332.8h-17.067v17.067h-17.067V332.8
	H307.2v17.067h-17.067V332.8h-17.067v17.067H256V332.8h-17.067v17.067h-22.067L443.733,123z"/>
<path d="M319.872,315.734h81.195c4.71,0,8.533-3.823,8.533-8.533v-81.195c0-4.71-3.823-8.533-8.533-8.533
	c-2.261,0-4.429,0.896-6.033,2.5l-81.195,81.195c-3.328,3.337-3.328,8.738,0,12.066
	C315.443,314.838,317.611,315.734,319.872,315.734z M392.533,246.614v52.053H340.48L392.533,246.614z"/>
<rect x="221.867" y="51.2" width="170.667" height="17.067"/>
<rect x="196.267" y="85.334" width="221.867" height="17.067"/>
<rect x="145.067" y="264.534" width="51.2" height="17.067"/>
<rect x="145.067" y="298.667" width="34.133" height="17.067"/>
<g>
</g>
<g>
</g>
<g>
</g>
<g>
</g>
<g>
</g>
<g>
</g>
<g>
</g>
<g>
</g>
<g>
</g>
<g>
</g>
<g>
</g>
<g>
</g>
<g>
</g>
<g>
</g>
<g>
</g>
</svg>
