<?xml version="1.0"?>
<svg xmlns="http://www.w3.org/2000/svg" id="filled_outline" data-name="filled outline" viewBox="0 0 512 512" width="512" height="512"><polygon points="368 24 368 112 312 157.82 280 184 232 184 200 157.82 144 112 144 24 368 24" style="fill:#ad543b"/><polygon points="312 24 312 157.82 280 184 232 184 200 157.82 200 24 312 24" style="fill:#a3442c"/><rect x="232" y="184" width="48" height="56" style="fill:#cc9e41"/><polygon points="376 416 256 488 136 416 136 296 256 224 376 296 376 416" style="fill:#deb55b"/><polygon points="216 24 256 80 296 24 216 24" style="fill:#bc674a"/><path d="M131.88428,289.13965A8.00091,8.00091,0,0,0,128,296V416a8.00091,8.00091,0,0,0,3.88428,6.86035l120,72a8.00156,8.00156,0,0,0,8.23144,0l120-72A8.00091,8.00091,0,0,0,384,416V296a8.00091,8.00091,0,0,0-3.88428-6.86035L288,233.87012V187.79077l85.06592-69.59936A8.0002,8.0002,0,0,0,376,112V24a8.00008,8.00008,0,0,0-8-8H144a8.00008,8.00008,0,0,0-8,8v88a8.0002,8.0002,0,0,0,2.93408,6.19141L224,187.79077v46.07935ZM368,411.4707,256,478.6709,144,411.4707V300.5293l112-67.2002,112,67.2002ZM234.85547,176,208,154.02734V32h3.88281L248,82.564V176ZM256,66.23633,231.54565,32h48.9087ZM264,82.564,300.11719,32H304V154.02734L277.14453,176H264Zm96,25.645-40,32.7273V32h40ZM152,32h40V140.93628L152,108.209Zm88,160h32v32.27026l-11.88428-7.13061a8.00157,8.00157,0,0,0-8.23144,0L240,224.27026Z"/><path d="M251.5625,289.34375l-24,16a8.00026,8.00026,0,0,0-1.21924,12.31348l11.92285,11.92285-3.12426,6.2478-13.48511-13.48511A8.00035,8.00035,0,0,0,216,320H168a8.0001,8.0001,0,0,0-5.65674,13.65723l21.84717,21.84668A32.045,32.045,0,0,0,216,384h14.3855l-13.04175,19.5625a7.99891,7.99891,0,0,0,.40918,9.43457l4.19263,5.24072-41.82984-25.09814-8.23144,13.7207,80,48c.06494.03906.13476.06543.20068.10254.2085.11719.42017.22754.63831.32568.1134.051.2279.09668.34314.14209q.29882.11793.606.21119c.11939.03637.23792.073.3584.10351.219.05567.441.0979.665.135.10425.01709.20752.04028.31226.05347a7.40959,7.40959,0,0,0,2.01684-.00562c.10425-.01367.20679-.03564.31055-.05322.239-.04053.47534-.0896.7085-.15137.11364-.02978.226-.0625.3385-.09765.238-.07422.47082-.16114.70044-.25708.09094-.03809.18286-.07129.2727-.113a7.97516,7.97516,0,0,0,.9187-.49561l.02063-.01123,88-56A7.99846,7.99846,0,0,0,352,392V320a8.00091,8.00091,0,0,0-3.88428-6.86035l-40-24-8.23144,13.7207L328.45093,320H296a8.00035,8.00035,0,0,0-5.65674,2.34277L280,332.686V296a8.00008,8.00008,0,0,0-8-8H256A7.99983,7.99983,0,0,0,251.5625,289.34375Zm26.53613,118.22656L256,435.19336l-22.09863-27.623,7.432-11.14843.01038.01562A7.99943,7.99943,0,0,0,248,400h16a7.99943,7.99943,0,0,0,6.65625-3.5625l.01038-.01562ZM272,352v13.57812L259.71875,384h-7.4375L240,365.57812V352Zm-56,16a16.01833,16.01833,0,0,1-16-16,8.00076,8.00076,0,0,0-2.34326-5.65723L187.31348,336h25.373L224,347.314V368Zm120-20.68628V387.6084l-43.67871,27.7959,1.92578-2.40723a7.99891,7.99891,0,0,0,.40918-9.43457L281.6145,384H296a32.045,32.045,0,0,0,31.80957-28.49609ZM299.31348,336h25.373l-10.34326,10.34277A8.00076,8.00076,0,0,0,312,352a16.01833,16.01833,0,0,1-16,16h-8V347.314ZM264,304v32H252.94434l2.21093-4.42188a8.00091,8.00091,0,0,0-1.49853-9.23535l-9.09961-9.09961L258.42236,304Z"/></svg>
