<?xml version="1.0" encoding="iso-8859-1"?>
<!-- Generator: Adobe Illustrator 19.0.0, SVG Export Plug-In . SVG Version: 6.00 Build 0)  -->
<svg version="1.1" id="Layer_1" xmlns="http://www.w3.org/2000/svg" xmlns:xlink="http://www.w3.org/1999/xlink" x="0px" y="0px"
	 viewBox="0 0 512 512" style="enable-background:new 0 0 512 512;" xml:space="preserve">
<g>
	<g>
		<g>
			<circle cx="413.583" cy="164.835" r="10.162"/>
			<path d="M355.078,206.076c4.683,4.521,12.212,4.388,16.729-0.298l4.287-4.446c4.52-4.685,2.892-8.52-3.617-8.52h-19.301
				c-6.509,0-8.004,3.7-3.321,8.222L355.078,206.076z"/>
			<path d="M509.637,419.996l-59.652-59.652c-0.003-0.003-0.008-0.006-0.011-0.01l-8.972-8.971h42.961
				c4.456,0,8.067-3.612,8.067-8.067v-61.277c0-4.455-3.611-8.067-8.067-8.067h-63.369c33.345-19.956,55.72-56.429,55.72-98.034
				c0-62.952-51.216-114.168-114.168-114.168c-35.103,0-66.552,15.929-87.512,40.934H59.191c-14.255,0-25.852,11.597-25.852,25.851
				c0,8.694,4.262,16.459,10.973,21.156c-8.179,14.162-12.459,30.12-12.459,46.693c0,25.371,10.351,49.691,28.523,67.301v10.267
				H8.067c-4.455,0-8.067,3.612-8.067,8.067v61.277c0,4.455,3.612,8.067,8.067,8.067h52.309v90.82c0,4.455,3.612,8.067,8.067,8.067
				s8.067-3.612,8.067-8.067v-13.15c1.026-0.099,2.04-0.23,3.056-0.366v13.515c0,4.455,3.612,8.067,8.067,8.067
				s8.067-3.612,8.067-8.067v-17.336c1.028-0.356,2.046-0.73,3.056-1.124v18.461c0,4.455,3.612,8.067,8.067,8.067
				s8.067-3.612,8.067-8.067v-26.871c7.839-5.254,14.744-11.794,20.411-19.32c5.734,7.652,12.667,14.181,20.464,19.386v26.805
				c0,4.455,3.612,8.067,8.067,8.067s8.067-3.612,8.067-8.067v-18.415c1.01,0.392,2.03,0.76,3.056,1.113v17.302
				c0,4.455,3.612,8.067,8.067,8.067c4.455,0,8.067-3.612,8.067-8.067v-13.494c1.014,0.134,2.033,0.25,3.056,0.347v13.147
				c0,4.455,3.612,8.067,8.067,8.067s8.067-3.612,8.067-8.067v-90.82h5.139v44.044c-0.063,0.407-0.105,0.82-0.105,1.243v45.532
				c0,4.455,3.612,8.067,8.067,8.067s8.067-3.612,8.067-8.067v-13.141c1.025-0.097,2.041-0.226,3.056-0.36v13.501
				c0,4.455,3.612,8.067,8.067,8.067s8.067-3.612,8.067-8.067v-17.3c1.028-0.354,2.046-0.726,3.056-1.119v18.419
				c0,4.455,3.611,8.067,8.067,8.067s8.067-3.612,8.067-8.067v-26.804c9.436-6.304,17.514-14.479,23.723-23.984
				c6.254,9.663,14.348,17.803,23.713,24.044v26.744c0,4.455,3.611,8.067,8.067,8.067c4.456,0,8.067-3.612,8.067-8.067v-18.379
				c1.009,0.39,2.03,0.758,3.056,1.11v17.269c0,4.455,3.611,8.067,8.067,8.067c4.456,0,8.067-3.612,8.067-8.067v-13.495
				c1.013,0.133,2.033,0.248,3.056,0.346v13.149c0,4.455,3.611,8.067,8.067,8.067c4.456,0,8.067-3.612,8.067-8.067v-90.82h14.873
				l37.686,37.687c-0.303,2.245-0.468,4.522-0.468,6.825c0,13.422,5.227,26.04,14.718,35.529
				c9.49,9.491,22.108,14.718,35.529,14.718c13.422,0,26.041-5.227,35.532-14.718C512.787,428.254,512.787,423.146,509.637,419.996z
				 M460.18,175.916c0,8.152-1.007,16.071-2.891,23.648l-45.649-12.683c-10.331-2.87-16.401-13.609-13.533-23.939
				c2.873-10.33,13.608-16.401,23.943-13.533l36.769,10.217C459.709,164.926,460.18,170.367,460.18,175.916z M362.145,77.882
				c41.962,0,77.844,26.503,91.803,63.646l-27.581-7.663c-18.9-5.252-38.552,5.854-43.807,24.758
				c-5.25,18.903,5.857,38.553,24.759,43.804l44.781,12.441c-15.097,34.732-49.733,59.084-89.956,59.084
				c-40.223,0-74.86-24.352-89.957-59.084l44.779-12.441c18.901-5.25,30.008-24.899,24.76-43.806
				c-5.255-18.901-24.905-30.007-43.807-24.755l-27.581,7.663C284.3,104.384,320.184,77.882,362.145,77.882z M265.471,159.626
				l36.769-10.216c10.328-2.874,21.072,3.201,23.943,13.529c2.869,10.333-3.203,21.074-13.534,23.943l-45.648,12.683
				c-1.884-7.577-2.89-15.497-2.89-23.648C264.111,170.367,264.581,164.926,265.471,159.626z M60.376,335.229H16.134v-45.144h44.243
				V335.229z M191.085,412.375V396.65c0-4.455-3.612-8.067-8.067-8.067s-8.067,3.612-8.067,8.067v10.92
				c-1.031-0.454-2.049-0.937-3.056-1.441v-9.479c0-4.455-3.612-8.067-8.067-8.067c-3.88,0-7.118,2.741-7.89,6.391
				c-4.414-4.156-8.3-8.939-11.52-14.265c4.17-9.036,6.772-18.931,7.462-29.347h42.259v61.456
				C193.115,412.696,192.098,412.543,191.085,412.375z M215.413,335.229h-63.325v-45.144h63.325V335.229z M290.992,282.018v63.767
				c0,19.386-8.214,36.888-21.343,49.213c-0.763-3.662-4.008-6.415-7.897-6.415c-4.456,0-8.067,3.612-8.067,8.067v9.487
				c-1.005,0.505-2.023,0.986-3.056,1.441V396.65c0-4.455-3.612-8.067-8.067-8.067s-8.067,3.612-8.067,8.067v15.745
				c-0.977,0.16-1.96,0.304-2.95,0.423v-130.8c0-4.455-3.612-8.067-8.067-8.067H144.02c-4.455,0-8.067,3.612-8.067,8.067v63.767
				c0,19.343-8.179,36.81-21.258,49.13c-0.795-3.621-4.016-6.333-7.875-6.333c-4.455,0-8.067,3.612-8.067,8.067v9.434
				c-1.005,0.507-2.023,0.988-3.056,1.447v-10.88c0-4.455-3.612-8.067-8.067-8.067s-8.067,3.612-8.067,8.067v15.729
				c-1.011,0.168-2.03,0.315-3.056,0.438V260.583l0.008-0.321c0.023-2.321-0.956-4.539-2.685-6.088
				c-16.426-14.711-25.847-35.776-25.847-57.792c0-16.496,5.124-32.255,14.818-45.575c1.647-2.263,2.003-5.218,0.941-7.806
				c-1.062-2.59-3.389-4.444-6.15-4.899c-4.707-0.777-8.123-4.8-8.123-9.567c0-5.359,4.359-9.718,9.719-9.718h204.121
				c-9.748,16.807-15.336,36.312-15.336,57.1c0,41.605,22.375,78.079,55.72,98.034h-4.639
				C294.602,273.951,290.992,277.563,290.992,282.018z M352.578,412.382V396.65c0-4.455-3.611-8.067-8.067-8.067
				s-8.067,3.612-8.067,8.067v10.954c-1.033-0.453-2.049-0.935-3.056-1.437v-9.517c0-4.455-3.611-8.067-8.067-8.067
				c-3.897,0-7.147,2.762-7.901,6.434c-6.26-5.896-11.434-13.048-15.146-21.191c2.534-7.099,4.126-14.635,4.643-22.464h48.715v61.46
				C354.608,412.701,353.591,412.548,352.578,412.382z M415.823,348.999l17.508,17.509c-1.243,1.719-2.373,3.503-3.381,5.35
				l-34.266-34.268c-1.513-1.513-3.565-2.363-5.705-2.363h-82.856v-45.144h55.02c0.519,0,1.037-0.013,1.554-0.02v0.02h112.197
				v45.144h-54.368c-3.262,0-6.205,1.965-7.453,4.98C412.827,343.222,413.517,346.692,415.823,348.999z M474.105,429.989
				c-9.112,0-17.678-3.548-24.122-9.993c-6.444-6.443-9.993-15.01-9.993-24.121c0-6.359,1.728-12.453,4.964-17.745l46.896,46.896
				C486.558,428.26,480.464,429.989,474.105,429.989z"/>
			<circle cx="310.707" cy="164.835" r="10.162"/>
		</g>
	</g>
</g>
<g>
</g>
<g>
</g>
<g>
</g>
<g>
</g>
<g>
</g>
<g>
</g>
<g>
</g>
<g>
</g>
<g>
</g>
<g>
</g>
<g>
</g>
<g>
</g>
<g>
</g>
<g>
</g>
<g>
</g>
</svg>
