<svg id="Capa_1" enable-background="new 0 0 512.282 512.282" height="512" viewBox="0 0 512.282 512.282" width="512" xmlns="http://www.w3.org/2000/svg"><g><g><circle cx="126.946" cy="129.474" fill="#9c9c9c" r="21.833"/></g><g><circle cx="324.004" cy="94.177" fill="#9c9c9c" r="21.833"/></g><g><circle cx="422.533" cy="38.371" fill="#9c9c9c" r="21.833"/></g><g><circle cx="225.475" cy="177.293" fill="#9c9c9c" r="21.833"/></g><g><path d="m148.781 129.471c0 12.06-9.78 21.84-21.84 21.84-9.41 0-17.43-5.96-20.49-14.31 1.7.43 3.47.65 5.3.65 12.06 0 21.83-9.77 21.83-21.83 0-2.64-.47-5.17-1.33-7.52 9.49 2.36 16.53 10.94 16.53 21.17z" fill="#838383"/></g><g><path d="m345.841 94.181c0 12.05-9.78 21.83-21.84 21.83-9.42 0-17.44-5.96-20.5-14.32 1.7.44 3.48.66 5.31.66 12.05 0 21.83-9.77 21.83-21.83 0-2.64-.47-5.17-1.33-7.52 9.49 2.36 16.53 10.95 16.53 21.18z" fill="#838383"/></g><g><path d="m444.361 38.371c0 12.06-9.77 21.83-21.83 21.83-9.42 0-17.44-5.96-20.5-14.31 1.7.43 3.48.66 5.31.66 12.05 0 21.83-9.78 21.83-21.83 0-2.65-.47-5.18-1.34-7.53 9.5 2.36 16.53 10.95 16.53 21.18z" fill="#838383"/></g><g><path d="m247.311 177.291c0 12.06-9.78 21.84-21.84 21.84-9.41 0-17.44-5.96-20.5-14.32 1.7.44 3.48.66 5.31.66 12.06 0 21.83-9.77 21.83-21.83 0-2.64-.47-5.17-1.33-7.52 9.49 2.36 16.53 10.94 16.53 21.17z" fill="#838383"/></g><g><g><g><path d="m44.967 459.462v-444.642c0-4.043-3.277-7.32-7.32-7.32h-22.557c-4.043 0-7.32 3.277-7.32 7.32v474.812c0 8.367 6.783 15.15 15.15 15.15h474.271c4.043 0 7.32-3.277 7.32-7.32v-23.36c0-4.043-3.277-7.32-7.32-7.32h-444.904c-4.043 0-7.32-3.277-7.32-7.32z" fill="#9c9c9c"/></g><g><path d="m504.512 474.102v23.36c0 4.04-3.28 7.32-7.32 7.32h-22c4.04 0 7.32-3.28 7.32-7.32v-23.36c0-4.04-3.28-7.32-7.32-7.32h22c4.04 0 7.32 3.28 7.32 7.32z" fill="#838383"/></g></g><g><g><path d="m154.144 466.733h-54.396v-254.669c0-3.587 2.908-6.495 6.495-6.495h41.407c3.587 0 6.495 2.908 6.495 6.495v254.669z" fill="#ee6161"/></g><g><path d="m252.673 466.733h-54.396v-209.348c0-3.587 2.908-6.495 6.495-6.495h41.407c3.587 0 6.495 2.908 6.495 6.495v209.348z" fill="#57be92"/></g><g><path d="m351.202 466.733h-54.396v-289.36c0-3.587 2.908-6.495 6.495-6.495h41.407c3.587 0 6.495 2.908 6.495 6.495v289.36z" fill="#fee45a"/></g><g><path d="m449.731 466.733h-54.396v-331.195c0-3.587 2.908-6.495 6.495-6.495h41.407c3.587 0 6.495 2.908 6.495 6.495v331.195z" fill="#60b7ff"/></g><g><path d="m154.141 212.062v254.67h-19.73v-254.67c0-3.59-2.91-6.49-6.49-6.49h19.73c3.59 0 6.49 2.9 6.49 6.49z" fill="#e94444"/></g><g><path d="m252.671 257.382v209.35h-19.73v-209.35c0-3.58-2.91-6.49-6.5-6.49h19.74c3.58 0 6.49 2.91 6.49 6.49z" fill="#09a76d"/></g><g><path d="m351.201 177.372v289.36h-19.73v-289.36c0-3.59-2.91-6.49-6.5-6.49h19.74c3.58 0 6.49 2.9 6.49 6.49z" fill="#fed402"/></g><g><path d="m449.731 135.542v331.19h-19.73v-331.19c0-3.59-2.91-6.5-6.5-6.5h19.74c3.58 0 6.49 2.91 6.49 6.5z" fill="#26a6fe"/></g></g></g><g><path d="m497.192 459.282h-39.96v-323.744c0-7.717-6.278-13.995-13.995-13.995h-41.407c-7.717 0-13.995 6.278-13.995 13.995v323.745h-29.133v-208.391c0-4.142-3.358-7.5-7.5-7.5s-7.5 3.358-7.5 7.5v208.342h-39.396v-280.855h39.396v37.838c0 4.142 3.358 7.5 7.5 7.5s7.5-3.358 7.5-7.5v-38.844c0-7.717-6.278-13.995-13.995-13.995h-41.407c-7.717 0-13.995 6.278-13.995 13.995v281.909h-29.133v-201.897c0-7.717-6.278-13.995-13.995-13.995h-41.407c-7.717 0-13.995 6.278-13.995 13.995v201.897h-29.133v-247.218c0-7.717-6.278-13.995-13.995-13.995h-41.407c-7.717 0-13.995 6.278-13.995 13.995v247.218h-39.78v-444.462c.002-8.172-6.646-14.82-14.818-14.82h-22.557c-8.172 0-14.819 6.648-14.819 14.82v356.321c0 4.142 3.358 7.5 7.5 7.5s7.5-3.358 7.5-7.5v-356.141h22.197v444.462c0 8.172 6.648 14.82 14.82 14.82h444.725v23h-474.093c-4.218 0-7.65-3.432-7.65-7.65v-83.491c0-4.142-3.358-7.5-7.5-7.5s-7.5 3.358-7.5 7.5v83.491c0 12.489 10.161 22.65 22.65 22.65h474.271c8.172 0 14.82-6.648 14.82-14.82v-23.36c.001-8.172-6.647-14.82-14.819-14.82zm-350.548-.049h-39.396v-246.164h39.396zm98.529 0h-39.396v-200.842h39.396zm197.058 0h-39.396v-322.69h39.396z"/><path d="m126.946 158.807c10.04 0 18.915-5.073 24.205-12.788l45.437 26.212c-.288 1.646-.446 3.335-.446 5.062 0 16.174 13.159 29.333 29.333 29.333s29.333-13.159 29.333-29.333c0-2.372-.29-4.676-.824-6.886l56.855-50.03c3.962 1.999 8.432 3.133 13.165 3.133 16.174 0 29.333-13.159 29.333-29.333 0-2.509-.318-4.944-.913-7.27l48.09-29.188c5.38 6.115 13.254 9.985 22.02 9.985 16.174 0 29.333-13.159 29.333-29.333s-13.159-29.333-29.333-29.333-29.334 13.159-29.334 29.333c0 2.013.204 3.979.593 5.879l-48.706 29.563c-5.337-5.524-12.813-8.969-21.083-8.969-16.174 0-29.333 13.159-29.333 29.333 0 5.969 1.796 11.524 4.87 16.161l-52.967 46.609c-5.338-5.534-12.821-8.987-21.1-8.987-9.06 0-17.172 4.13-22.557 10.605l-46.519-26.836c-.068-.039-.139-.069-.207-.106.052-.711.087-1.426.087-2.15 0-16.174-13.159-29.333-29.333-29.333s-29.332 13.16-29.332 29.334 13.158 29.333 29.333 29.333zm295.587-134.769c7.903 0 14.333 6.43 14.333 14.333s-6.43 14.333-14.333 14.333-14.333-6.43-14.333-14.333 6.43-14.333 14.333-14.333zm-98.529 55.806c7.903 0 14.333 6.43 14.333 14.333s-6.43 14.333-14.333 14.333-14.333-6.43-14.333-14.333 6.43-14.333 14.333-14.333zm-98.529 83.116c7.903 0 14.333 6.43 14.333 14.333s-6.43 14.333-14.333 14.333-14.333-6.43-14.333-14.333 6.43-14.333 14.333-14.333zm-98.529-47.819c7.903 0 14.333 6.43 14.333 14.333s-6.43 14.333-14.333 14.333-14.333-6.43-14.333-14.333 6.429-14.333 14.333-14.333z"/></g></g></svg>