<?xml version="1.0" encoding="iso-8859-1"?>
<!-- Generator: Adobe Illustrator 19.0.0, SVG Export Plug-In . SVG Version: 6.00 Build 0)  -->
<svg version="1.1" id="Capa_1" xmlns="http://www.w3.org/2000/svg" xmlns:xlink="http://www.w3.org/1999/xlink" x="0px" y="0px"
	 viewBox="0 0 512 512" style="enable-background:new 0 0 512 512;" xml:space="preserve">
<g>
	<g>
		<g>
			<path d="M256,0C114.833,0,0,114.833,0,256s114.833,256,256,256s256-114.833,256-256S397.167,0,256,0z M256,490.667
				C126.604,490.667,21.333,385.396,21.333,256S126.604,21.333,256,21.333S490.667,126.604,490.667,256S385.396,490.667,256,490.667
				z"/>
			<path d="M256,85.333c-58.813,0-106.667,47.854-106.667,106.667v10.667c0,5.896,4.771,10.667,10.667,10.667h42.667
				c5.896,0,10.667-4.771,10.667-10.667V192c0-23.521,19.146-42.667,42.667-42.667s42.667,19.146,42.667,42.667
				S279.521,234.667,256,234.667s-42.667,19.146-42.667,42.667v53.333c0,5.896,4.771,10.667,10.667,10.667h42.667
				c5.896,0,10.667-4.771,10.667-10.667v-34.125c49.271-9.979,85.333-53.354,85.333-104.542
				C362.667,133.188,314.813,85.333,256,85.333z M265.479,276.813c-5.396,0.604-9.479,5.167-9.479,10.604V320h-21.333v-42.667
				c0-11.771,9.563-21.333,21.333-21.333c35.292,0,64-28.708,64-64s-28.708-64-64-64s-64,28.708-64,64h-21.333
				c0-47.063,38.271-85.333,85.333-85.333s85.333,38.271,85.333,85.333C341.333,235.542,308.729,272,265.479,276.813z"/>
			<path d="M245.333,362.667c-17.646,0-32,14.354-32,32s14.354,32,32,32c17.646,0,32-14.354,32-32S262.979,362.667,245.333,362.667z
				 M245.333,405.333c-5.875,0-10.667-4.792-10.667-10.667S239.458,384,245.333,384S256,388.792,256,394.667
				S251.208,405.333,245.333,405.333z"/>
		</g>
	</g>
</g>
<g>
</g>
<g>
</g>
<g>
</g>
<g>
</g>
<g>
</g>
<g>
</g>
<g>
</g>
<g>
</g>
<g>
</g>
<g>
</g>
<g>
</g>
<g>
</g>
<g>
</g>
<g>
</g>
<g>
</g>
</svg>
