<?xml version="1.0" encoding="iso-8859-1"?>
<!-- Generator: Adobe Illustrator 19.0.0, SVG Export Plug-In . SVG Version: 6.00 Build 0)  -->
<svg version="1.1" id="Capa_1" xmlns="http://www.w3.org/2000/svg" xmlns:xlink="http://www.w3.org/1999/xlink" x="0px" y="0px"
	 viewBox="0 0 512.004 512.004" style="enable-background:new 0 0 512.004 512.004;" xml:space="preserve">
<g>
	<g>
		<path d="M499.942,7.066c-10.949-10.951-31.39-9.187-62.492,5.393c-24.591,11.526-54.81,30.697-87.726,55.625
			c-3.366,2.55-4.008,7.363-1.43,10.707c2.551,3.309,7.296,3.929,10.626,1.405C439.178,19.36,480.742,9.375,489.187,17.82
			c6.59,6.59,2.498,32.805-30.719,85.005c-29.564,46.457-74.357,100.942-122.894,149.482
			c-48.822,48.823-85.135,75.367-110.811,80.991l-51.064-51.064c5.622-25.675,32.166-61.987,80.99-110.812
			c24.211-24.21,50.576-48.101,76.613-69.441c3.223-2.642,3.699-7.393,1.083-10.637l-0.001-0.001
			c-2.655-3.293-7.482-3.78-10.754-1.098c-26.41,21.647-53.147,45.875-77.696,70.422c-47,47.001-73.77,82.594-82.94,110.508
			c-7.767-3.764-17.395-2.449-23.834,3.989l-25.874,25.874c-5.14,5.14-7.016,12.317-5.654,18.956
			c-4.456,0.029-9.609,0.391-15.221,1.375c-4.409,0.773-7.208,5.166-6.036,9.486v0.001c1.036,3.82,4.821,6.164,8.72,5.485
			c11.095-1.931,19.976-0.943,23.688-0.338l59.305,59.303c-1.809,26.514-27.041,46.398-52.734,58.033
			c0.496-2.281,1.349-4.629,2.601-7.04c0.598-1.153,0.995-2.417,0.983-3.716c-0.031-3.527-2.342-6.394-5.479-7.312
			c-0.234-0.068-23.583-7.025-39.19-22.632c-6.069-6.068-7.366-13.573-9.008-23.071c-1.881-10.887-4.168-24.087-14.855-37.47
			c1.627-1.295,3.288-2.52,4.982-3.672c3.235-2.201,4.216-6.532,2.31-9.949l-0.003-0.005c-2.178-3.903-7.234-5.095-10.93-2.581
			c-13.777,9.371-25.568,22.665-35.123,39.624c-15.996,28.404-18.88,60.55-8.337,92.964c7.879,24.229,20.416,40.018,20.945,40.677
			c1.451,1.808,3.637,2.846,5.931,2.846c0.23,0,0.461-0.01,0.694-0.031c2.54-0.232,4.794-1.722,6.004-3.967
			c11.493-21.341,16.904-22.466,39.679-27.205c4.374-0.91,9.333-1.942,14.958-3.258c21.34-4.994,42.854-14.943,59.025-27.296
			c18.295-13.977,29.246-30.573,32.109-48.456c0.195,0.005,0.386,0.028,0.582,0.028c5.565,0,10.798-2.168,14.735-6.104
			l25.874-25.874c6.439-6.44,7.754-16.07,3.988-23.837c27.917-9.171,63.507-35.941,110.506-82.941
			c49.287-49.291,94.836-104.719,124.969-152.071C505.509,57.233,515.146,22.268,499.942,7.066z M107.663,459.452
			c-4.016,1.316-7.921,2.414-11.617,3.279c-5.441,1.273-10.302,2.284-14.591,3.177c-20.577,4.282-31.611,6.577-43.632,24.295
			c-11.037-18.568-30.413-61.98-4.932-107.223c4.331-7.689,9.152-14.489,14.429-20.382c7.551,9.901,9.213,19.497,10.953,29.561
			c1.848,10.696,3.76,21.755,13.24,31.237c12.358,12.357,28.311,19.938,37.734,23.666
			C107.97,451.243,107.443,455.381,107.663,459.452z M221.08,359.084l-25.874,25.875c-1.064,1.064-2.476,1.649-3.98,1.649
			s-2.916-0.585-3.98-1.65l-65.207-65.205c-2.195-2.195-2.195-5.767,0-7.961l25.874-25.874c1.097-1.098,2.538-1.647,3.98-1.647
			s2.883,0.549,3.98,1.647l65.207,65.207C223.276,353.319,223.276,356.89,221.08,359.084z"/>
	</g>
</g>
<g>
</g>
<g>
</g>
<g>
</g>
<g>
</g>
<g>
</g>
<g>
</g>
<g>
</g>
<g>
</g>
<g>
</g>
<g>
</g>
<g>
</g>
<g>
</g>
<g>
</g>
<g>
</g>
<g>
</g>
</svg>
